<svg id="legalaid" width="868" height="120" viewBox="0 0 868 120" version="1.1" xmlns="http://www.w3.org/2000/svg" xmlns:xlink="http://www.w3.org/1999/xlink" xmlns:figma="http://www.figma.com/figma/ns">
<title>Group</title>
<desc>Created using Figma</desc>
<g id="Canvas" transform="translate(-502 -775)" figma:type="canvas">
<g id="Group" figma:type="frame">
<g id="Legal Aid" figma:type="frame">
<g id="Approved" figma:type="vector">
<use xlink:href="#path0_fill" transform="translate(1074 812)" fill="#3F3F3F"/>
<use xlink:href="#path1_fill" transform="translate(1074 812)" fill="#3F3F3F"/>
<use xlink:href="#path2_fill" transform="translate(1074 812)" fill="#3F3F3F"/>
<use xlink:href="#path3_fill" transform="translate(1074 812)" fill="#3F3F3F"/>
<use xlink:href="#path4_fill" transform="translate(1074 812)" fill="#3F3F3F"/>
<use xlink:href="#path5_fill" transform="translate(1074 812)" fill="#3F3F3F"/>
<use xlink:href="#path6_fill" transform="translate(1074 812)" fill="#3F3F3F"/>
<use xlink:href="#path7_fill" transform="translate(1074 812)" fill="#3F3F3F"/>
</g>
</g>
<g id="legalaid" figma:type="vector">
<use xlink:href="#path8_fill" transform="translate(502 775)"/>
</g>
</g>
</g>
<defs>
<path id="path0_fill" d="M 46.4833 55.1564L 41.0983 55.1564C 40.475 55.1564 39.9889 55.0066 39.6399 54.7071C 39.2908 54.3825 39.054 53.9706 38.9293 53.4714L 36.0124 40.3656L 14.1731 40.3656L 8.04016 53.4714C 7.81578 53.9207 7.46675 54.3201 6.99307 54.6696C 6.54432 54.9941 6.03324 55.1564 5.45983 55.1564L 0 55.1564L 26.2895 1.4978L 33.3573 1.4978L 46.4833 55.1564ZM 16.5291 35.2731L 34.8906 35.2731L 29.9543 13.0683C 29.8047 12.4192 29.6426 11.6828 29.4681 10.859C 29.2936 10.0352 29.144 9.14904 29.0194 8.20044C 28.6703 9.14904 28.3088 10.0477 27.9349 10.8965C 27.5859 11.7203 27.2493 12.4567 26.9252 13.1057L 16.5291 35.2731Z"/>
<path id="path1_fill" d="M 49.6369 68L 55.8072 17.1872L 59.1355 17.1872C 60.6313 17.1872 61.3793 17.9361 61.3793 19.4339L 60.7435 27.522C 61.6909 25.8744 62.7255 24.3891 63.8474 23.0661C 64.9693 21.7181 66.141 20.5698 67.3626 19.6211C 68.6092 18.6725 69.9056 17.9486 71.2518 17.4493C 72.5981 16.9251 73.9693 16.663 75.3654 16.663C 78.5815 16.663 81.087 17.8363 82.882 20.1828C 84.677 22.5294 85.5745 25.9618 85.5745 30.4802C 85.5745 32.5272 85.3626 34.5742 84.9388 36.6211C 84.515 38.6681 83.9042 40.6278 83.1064 42.5C 82.3335 44.3473 81.3862 46.0822 80.2643 47.7048C 79.1673 49.3025 77.9333 50.7004 76.5621 51.8987C 75.2158 53.072 73.7449 53.9956 72.1493 54.6696C 70.5538 55.3436 68.8834 55.6806 67.1383 55.6806C 65.2685 55.6806 63.5607 55.3187 62.015 54.5947C 60.4693 53.8458 59.1729 52.7849 58.1258 51.4119L 56.1064 68L 49.6369 68ZM 72.8599 22.0176C 71.6632 22.0176 70.4416 22.3921 69.195 23.141C 67.9734 23.8899 66.7892 24.9383 65.6424 26.2863C 64.4956 27.6344 63.4236 29.232 62.4264 31.0793C 61.4541 32.9266 60.6064 34.9361 59.8834 37.1079L 58.6867 46.7687C 59.6341 48.1417 60.7685 49.1153 62.0898 49.6894C 63.436 50.2386 64.7948 50.5132 66.166 50.5132C 67.4624 50.5132 68.684 50.2386 69.8308 49.6894C 70.9776 49.1402 72.0247 48.4038 72.972 47.4802C 73.9194 46.5316 74.7671 45.4332 75.515 44.185C 76.2629 42.9119 76.8862 41.5639 77.3848 40.141C 77.9083 38.6931 78.3072 37.2078 78.5815 35.685C 78.8557 34.1373 78.9928 32.6145 78.9928 31.1167C 78.9928 28.1461 78.4568 25.8869 77.3848 24.3392C 76.3128 22.7915 74.8045 22.0176 72.8599 22.0176Z"/>
<path id="path2_fill" d="M 88.3477 68L 94.518 17.1872L 97.8463 17.1872C 99.3421 17.1872 100.09 17.9361 100.09 19.4339L 99.4543 27.522C 100.402 25.8744 101.436 24.3891 102.558 23.0661C 103.68 21.7181 104.852 20.5698 106.073 19.6211C 107.32 18.6725 108.616 17.9486 109.963 17.4493C 111.309 16.9251 112.68 16.663 114.076 16.663C 117.292 16.663 119.798 17.8363 121.593 20.1828C 123.388 22.5294 124.285 25.9618 124.285 30.4802C 124.285 32.5272 124.073 34.5742 123.65 36.6211C 123.226 38.6681 122.615 40.6278 121.817 42.5C 121.044 44.3473 120.097 46.0822 118.975 47.7048C 117.878 49.3025 116.644 50.7004 115.273 51.8987C 113.927 53.072 112.456 53.9956 110.86 54.6696C 109.265 55.3436 107.594 55.6806 105.849 55.6806C 103.979 55.6806 102.271 55.3187 100.726 54.5947C 99.1801 53.8458 97.8837 52.7849 96.8366 51.4119L 94.8172 68L 88.3477 68ZM 111.571 22.0176C 110.374 22.0176 109.152 22.3921 107.906 23.141C 106.684 23.8899 105.5 24.9383 104.353 26.2863C 103.206 27.6344 102.134 29.232 101.137 31.0793C 100.165 32.9266 99.3172 34.9361 98.5942 37.1079L 97.3975 46.7687C 98.3449 48.1417 99.4793 49.1153 100.801 49.6894C 102.147 50.2386 103.506 50.5132 104.877 50.5132C 106.173 50.5132 107.395 50.2386 108.542 49.6894C 109.688 49.1402 110.735 48.4038 111.683 47.4802C 112.63 46.5316 113.478 45.4332 114.226 44.185C 114.974 42.9119 115.597 41.5639 116.096 40.141C 116.619 38.6931 117.018 37.2078 117.292 35.685C 117.567 34.1373 117.704 32.6145 117.704 31.1167C 117.704 28.1461 117.168 25.8869 116.096 24.3392C 115.024 22.7915 113.515 22.0176 111.571 22.0176Z"/>
<path id="path3_fill" d="M 128.667 55.1564L 133.229 17.1872L 136.557 17.1872C 137.255 17.1872 137.804 17.3495 138.203 17.674C 138.601 17.9985 138.801 18.4978 138.801 19.1718C 138.801 19.2717 138.788 19.4214 138.763 19.6211C 138.763 19.7959 138.751 19.9831 138.726 20.1828C 138.726 20.3825 138.714 20.5573 138.689 20.707C 138.689 20.8568 138.689 20.9442 138.689 20.9692L 138.165 27.859C 139.786 24.3642 141.593 21.6681 143.588 19.7709C 145.607 17.8737 147.726 16.9251 149.945 16.9251C 150.992 16.9251 152.039 17.1498 153.086 17.5991L 151.889 24.0022C 150.718 23.5279 149.583 23.2907 148.486 23.2907C 146.068 23.2907 143.912 24.4765 142.017 26.848C 140.122 29.1946 138.539 32.7643 137.268 37.5573L 135.173 55.1564L 128.667 55.1564Z"/>
<path id="path4_fill" d="M 167.525 50.4758C 169.345 50.4758 171.003 49.9765 172.499 48.978C 173.995 47.9794 175.266 46.6564 176.313 45.0088C 177.36 43.3363 178.171 41.4141 178.744 39.2423C 179.317 37.0705 179.604 34.7988 179.604 32.4273C 179.604 28.9325 178.918 26.2988 177.547 24.5264C 176.176 22.754 174.194 21.8678 171.601 21.8678C 169.756 21.8678 168.086 22.3671 166.59 23.3656C 165.119 24.3392 163.86 25.6623 162.813 27.3348C 161.766 28.9824 160.956 30.8921 160.382 33.0639C 159.809 35.2357 159.522 37.5073 159.522 39.8789C 159.522 43.3737 160.196 46.0198 161.542 47.8172C 162.913 49.5896 164.907 50.4758 167.525 50.4758ZM 166.927 55.6806C 164.858 55.6806 162.963 55.3311 161.243 54.6322C 159.522 53.9082 158.039 52.8723 156.792 51.5242C 155.546 50.1762 154.574 48.5286 153.876 46.5815C 153.178 44.6344 152.828 42.4126 152.828 39.9163C 152.828 36.721 153.327 33.7129 154.324 30.8921C 155.322 28.0712 156.68 25.5999 158.401 23.478C 160.146 21.3561 162.19 19.6836 164.533 18.4604C 166.902 17.2372 169.457 16.6256 172.2 16.6256C 174.269 16.6256 176.164 16.9875 177.884 17.7115C 179.604 18.4104 181.087 19.4339 182.334 20.7819C 183.581 22.13 184.553 23.79 185.251 25.7621C 185.949 27.7093 186.298 29.9185 186.298 32.3899C 186.298 35.5602 185.799 38.5558 184.802 41.3767C 183.805 44.1975 182.434 46.6689 180.689 48.7907C 178.968 50.9126 176.924 52.5977 174.556 53.8458C 172.187 55.069 169.644 55.6806 166.927 55.6806Z"/>
<path id="path5_fill" d="M 191.192 17.2247L 196.577 17.2247C 197.075 17.2247 197.474 17.362 197.773 17.6366C 198.073 17.9112 198.259 18.2357 198.334 18.6101L 203.981 43.0242C 204.181 43.9479 204.318 44.8715 204.392 45.7952C 204.492 46.7188 204.567 47.63 204.617 48.5286C 204.891 47.63 205.178 46.7313 205.477 45.8326C 205.776 44.909 206.15 43.9728 206.599 43.0242L 218.341 18.6101C 218.541 18.2107 218.815 17.8862 219.164 17.6366C 219.513 17.362 219.899 17.2247 220.323 17.2247L 225.521 17.2247L 206.524 55.1564L 200.952 55.1564L 191.192 17.2247Z"/>
<path id="path6_fill" d="M 255.953 25.3502C 255.953 26.9978 255.617 28.5206 254.944 29.9185C 254.271 31.2915 253.037 32.5396 251.242 33.663C 249.447 34.7614 246.978 35.7225 243.837 36.5463C 240.696 37.37 236.657 38.0316 231.721 38.5308C 231.696 38.8054 231.683 39.08 231.683 39.3546C 231.683 39.6043 231.683 39.8664 231.683 40.141C 231.683 43.4861 232.406 46.0448 233.852 47.8172C 235.323 49.5646 237.53 50.4383 240.471 50.4383C 241.668 50.4383 242.728 50.3135 243.65 50.0639C 244.598 49.8142 245.433 49.5147 246.156 49.1652C 246.904 48.7908 247.552 48.3913 248.1 47.967C 248.674 47.5176 249.197 47.1182 249.671 46.7687C 250.145 46.3943 250.581 46.0822 250.98 45.8326C 251.379 45.583 251.778 45.4582 252.176 45.4582C 252.625 45.4582 253.037 45.6703 253.411 46.0947L 255.056 48.1542C 253.784 49.4772 252.538 50.6131 251.316 51.5617C 250.12 52.4853 248.886 53.2592 247.614 53.8833C 246.343 54.5073 245.009 54.9567 243.613 55.2313C 242.242 55.5308 240.758 55.6806 239.163 55.6806C 236.994 55.6806 235.049 55.3187 233.329 54.5947C 231.609 53.8708 230.15 52.8473 228.953 51.5242C 227.757 50.1762 226.834 48.5536 226.186 46.6564C 225.538 44.7592 225.214 42.6373 225.214 40.2908C 225.214 38.3436 225.413 36.409 225.812 34.4868C 226.236 32.5396 226.834 30.6924 227.607 28.9449C 228.405 27.1975 229.365 25.5749 230.487 24.0771C 231.634 22.5793 232.93 21.2937 234.376 20.2203C 235.847 19.1219 237.455 18.2606 239.2 17.6366C 240.97 17.0125 242.865 16.7004 244.884 16.7004C 246.804 16.7004 248.462 16.975 249.858 17.5242C 251.254 18.0734 252.401 18.7724 253.298 19.6211C 254.196 20.4699 254.857 21.406 255.28 22.4295C 255.729 23.453 255.953 24.4266 255.953 25.3502ZM 244.51 21.4934C 242.94 21.4934 241.494 21.8179 240.172 22.467C 238.851 23.116 237.679 24.0147 236.657 25.163C 235.635 26.2863 234.762 27.6219 234.039 29.1696C 233.316 30.6924 232.755 32.3399 232.357 34.1123C 236.196 33.638 239.275 33.1013 241.593 32.5022C 243.912 31.8781 245.694 31.2166 246.941 30.5176C 248.188 29.7937 249.01 29.0198 249.409 28.196C 249.808 27.3722 250.007 26.511 250.007 25.6123C 250.007 25.163 249.908 24.7012 249.708 24.2269C 249.509 23.7276 249.185 23.2783 248.736 22.8789C 248.312 22.4794 247.751 22.1549 247.053 21.9053C 246.355 21.6307 245.507 21.4934 244.51 21.4934Z"/>
<path id="path7_fill" d="M 285.753 55.1564C 284.881 55.1564 284.283 54.9317 283.958 54.4824C 283.659 54.033 283.51 53.4839 283.51 52.8348L 284.22 44.9339C 283.273 46.5565 282.238 48.0294 281.116 49.3524C 279.994 50.6755 278.81 51.8113 277.564 52.7599C 276.342 53.6836 275.058 54.4075 273.712 54.9317C 272.391 55.431 271.044 55.6806 269.673 55.6806C 266.432 55.6806 263.914 54.5073 262.119 52.1608C 260.349 49.7893 259.464 46.3568 259.464 41.8634C 259.464 39.8164 259.676 37.7695 260.1 35.7225C 260.524 33.6755 261.122 31.7159 261.895 29.8436C 262.693 27.9714 263.64 26.2364 264.737 24.6388C 265.859 23.0162 267.093 21.6182 268.439 20.4449C 269.81 19.2717 271.294 18.348 272.889 17.674C 274.485 17 276.155 16.663 277.9 16.663C 279.745 16.663 281.428 17.025 282.949 17.7489C 284.494 18.4728 285.803 19.5088 286.875 20.8568L 289.456 0L 296 0L 289.194 55.1564L 285.753 55.1564ZM 272.179 50.326C 273.375 50.326 274.572 49.964 275.769 49.2401C 276.99 48.4912 278.162 47.4677 279.284 46.1696C 280.431 44.8466 281.49 43.2863 282.463 41.489C 283.46 39.6667 284.32 37.6821 285.043 35.5352L 286.277 25.5C 285.33 24.1769 284.195 23.2408 282.874 22.6916C 281.553 22.1424 280.219 21.8678 278.873 21.8678C 276.903 21.8678 275.121 22.4545 273.525 23.6278C 271.954 24.801 270.608 26.3238 269.486 28.196C 268.389 30.0433 267.542 32.1153 266.943 34.4119C 266.345 36.7085 266.046 38.9677 266.046 41.1894C 266.046 44.1601 266.582 46.4317 267.654 48.0044C 268.726 49.5521 270.234 50.326 272.179 50.326Z"/>
<path id="path8_fill" fill-rule="evenodd" d="M 534.188 114.403C 533.631 115.087 532.973 115.64 532.213 116.06C 531.45 116.486 530.648 116.73 529.803 116.791C 529.455 116.825 529.072 116.849 528.649 116.865C 528.224 116.88 527.744 116.89 527.207 116.89L 522.825 116.89L 522.825 100.264L 526.454 100.264C 526.976 100.264 527.535 100.268 528.143 100.286C 528.746 100.302 529.234 100.327 529.597 100.355C 530.374 100.42 531.085 100.585 531.735 100.849C 532.385 101.11 532.981 101.497 533.538 102.01C 534.368 102.773 534.989 103.697 535.392 104.773C 535.8 105.847 536 107.133 536 108.636C 536 110.966 535.397 112.887 534.188 114.403ZM 531.78 106.303C 531.656 105.514 531.413 104.838 531.045 104.281C 530.747 103.817 530.374 103.471 529.927 103.239C 529.481 103.009 528.89 102.892 528.151 102.892L 526.472 102.892L 526.472 114.161L 528.443 114.161C 529.65 114.161 530.541 113.739 531.11 112.891C 531.677 112.046 531.964 110.732 531.964 108.945C 531.964 107.974 531.905 107.092 531.78 106.303ZM 521.329 84.5431C 519.332 87.6587 518.392 88.7032 515.814 90.3244C 512.645 92.2885 509.243 93.331 505.606 93.331C 492.699 93.331 483.199 81.9923 483.199 66.5154C 483.199 49.8691 494.815 36.4593 509.243 36.4593C 510.768 36.4593 512.41 36.5742 514.055 37.036C 516.989 37.6128 518.275 38.1915 521.329 40.2765L 521.329 7.55664L 535.287 7.55664L 535.287 91.8228L 521.329 91.8228L 521.329 84.5431ZM 521.329 59.6916C 521.329 56.683 520.974 53.9122 520.622 52.7587C 519.686 49.8691 515.813 47.7821 511.473 47.7821C 503.733 47.7821 497.982 55.3016 497.982 65.4689C 497.982 75.1804 502.551 81.9923 509.243 81.9923C 513.581 81.9923 517.925 79.1126 521.329 73.91L 521.329 59.6916ZM 483.849 116.89L 482.574 112.942L 477.262 112.942L 475.982 116.89L 472.183 116.89L 478.119 100.212L 482.053 100.212L 487.756 116.89L 483.849 116.89ZM 481.583 109.902C 481.515 109.696 481.432 109.432 481.336 109.111C 481.241 108.794 481.138 108.435 481.023 108.035C 480.911 107.637 480.8 107.238 480.699 106.84C 480.648 106.65 480.577 106.394 480.488 106.075L 480.253 105.096C 480.186 104.761 480.117 104.481 480.05 104.255L 479.967 103.899L 479.866 104.234C 479.812 104.442 479.743 104.709 479.654 105.036C 479.569 105.361 479.481 105.712 479.382 106.087C 479.287 106.463 479.198 106.802 479.107 107.104C 478.937 107.71 478.779 108.237 478.641 108.683C 478.501 109.131 478.339 109.632 478.145 110.191L 481.689 110.191L 481.583 109.902ZM 472.525 28.1371C 468.184 28.1371 464.551 23.973 464.551 18.7685C 464.551 13.5738 468.184 9.40975 472.525 9.40975C 476.869 9.40975 480.387 13.5738 480.387 18.7685C 480.387 23.973 476.869 28.1371 472.525 28.1371ZM 441.603 72.9864L 415.675 72.9864L 409.338 91.8228L 393.851 91.8228L 421.89 15.5379L 435.147 15.5379L 463.192 91.8228L 447.699 91.8228L 441.603 72.9864ZM 428.576 32.9869L 419.654 60.6151L 437.61 60.6151L 428.576 32.9869ZM 382.896 100.264L 393.209 100.264L 392.743 103.013L 386.543 103.013L 386.543 106.816L 391.674 106.816L 391.674 109.569L 386.543 109.569L 386.543 114.019L 393.393 114.019L 393.393 116.89L 382.896 116.89L 382.896 100.264ZM 361.398 100.264L 371.711 100.264L 371.238 103.013L 365.041 103.013L 365.041 106.816L 370.172 106.816L 370.172 109.569L 365.041 109.569L 365.041 114.019L 371.888 114.019L 371.888 116.89L 361.398 116.89L 361.398 100.264ZM 354.977 7.55664L 368.939 7.55664L 368.939 91.8228L 354.977 91.8228L 354.977 7.55664ZM 346.838 92.5184C 339.805 92.5184 337.573 91.363 335.115 86.6202C 329.951 91.25 325.373 93.2141 319.854 93.2141C 310.59 93.2141 304.019 87.2029 304.019 78.6448C 304.019 76.8016 304.375 74.9485 304.964 73.2124C 306.836 68.2397 310.12 65.7028 318.095 63.3899L 333.586 58.9919L 333.586 54.487C 333.586 48.7116 331.474 46.0459 326.904 46.0459C 322.679 46.0459 319.273 48.2498 319.273 50.9076C 319.273 51.3674 319.391 51.6013 319.622 52.295L 306.25 55.1866C 305.661 53.5674 305.546 52.9886 305.546 51.4824C 305.546 42.0087 313.996 36.5742 328.771 36.5742C 341.798 36.5742 347.668 41.8878 347.668 53.6843L 347.668 76.104C 347.668 80.9558 348.256 81.7763 352.006 82.1093L 349.778 92.5184L 346.838 92.5184ZM 333.586 67.8988L 319.622 72.4077C 318.799 74.4848 318.565 75.5273 318.565 76.9126C 318.565 80.385 320.683 82.4581 324.202 82.4581C 325.962 82.4581 328.07 81.8833 329.951 80.8408C 330.891 80.385 331.592 79.9212 333.586 78.4209L 333.586 67.8988ZM 296.318 56.459C 296.318 68.7015 286.691 76.9126 272.386 76.9126C 270.976 76.9126 270.156 76.9126 268.398 76.5678C 264.759 79.2256 262.996 80.9558 262.996 82.3471C 262.996 83.5026 263.939 83.8474 266.635 83.8474L 285.759 83.8474C 296.435 83.8474 301.479 88.1225 301.479 96.7915C 301.479 110.203 288.337 119.913 270.043 119.913C 256.665 119.913 247.63 114.478 247.63 106.386C 247.63 102.228 249.975 98.6406 256.309 93.331C 250.918 91.363 248.685 89.2859 248.685 86.0434C 248.685 82.9258 250.56 80.496 255.839 77.0315C 256.546 76.4489 257.723 75.7572 259.239 74.6057C 256.781 72.7466 255.724 71.9459 254.432 70.4376C 251.269 66.7413 249.622 62.3474 249.622 57.2577C 249.622 44.4306 258.541 36.5742 272.971 36.5742C 276.962 36.5742 279.188 37.036 284.348 38.7722L 292.444 38.7722L 303.476 38.0765L 303.476 48.4777L 293.857 48.4777C 295.732 51.1375 296.318 52.9886 296.318 56.459ZM 272.147 109.05C 276.375 109.05 280.95 107.545 284.23 104.886C 286.812 102.918 288.337 100.496 288.337 98.4127C 288.337 96.2147 286.107 95.0652 281.413 95.0652L 264.407 95.0652C 263.939 95.8659 263.585 96.5655 263.233 96.9084C 261.592 99.5702 260.651 101.651 260.651 103.035C 260.651 106.386 265.697 109.05 272.147 109.05ZM 272.85 46.5097C 267.925 46.5097 263.939 51.1375 263.939 56.683C 263.939 62.1175 267.925 66.5154 272.971 66.5154C 278.019 66.5154 282.001 62.1175 282.001 56.566C 282.001 51.0226 277.898 46.5097 272.85 46.5097ZM 224.135 82.1093C 226.245 82.1093 228.356 81.8833 230.589 81.1916C 233.878 80.2661 235.986 79.2256 241.022 76.104L 246.196 86.6202C 243.616 88.0115 241.615 88.941 240.326 89.5118C 234.576 92.0586 228.706 93.331 222.37 93.331C 206.186 93.331 195.981 82.8089 195.981 66.3945C 195.981 49.4033 207.708 36.5742 223.313 36.5742C 236.806 36.5742 246.196 46.6306 246.196 61.1939L 246.196 67.0862L 210.053 67.0862C 210.288 71.5931 210.641 73.4462 211.935 75.6402C 214.28 79.5744 218.968 82.1093 224.135 82.1093ZM 232.11 58.4172C 231.762 50.21 228.941 46.9754 222.37 46.9754C 216.153 46.9754 211.935 51.1375 210.754 58.4172L 232.11 58.4172ZM 149.112 15.5379L 163.897 15.5379L 163.897 79.4594L 195.574 79.4594L 195.574 91.8228L 149.112 91.8228L 149.112 15.5379ZM 128.868 116.67L 6.11928 116.67C 0.668648 116.67 -1.56376 112.865 1.16452 108.217L 62.5399 3.49168C 65.2642 -1.16389 69.7212 -1.16389 72.4435 3.49168L 79.2237 15.0603C 81.952 19.7119 81.952 27.3205 79.2316 31.9682L 51.2574 79.7309C 48.539 84.3865 50.7694 88.1899 56.2161 88.1899L 112.182 88.1938C 117.631 88.1938 124.314 91.9952 127.039 96.6428L 133.821 108.217C 136.541 112.865 134.315 116.67 128.868 116.67ZM 108.757 81.0886L 68.2177 81.0886C 63.6739 81.0886 61.8149 77.9214 64.0828 74.0428L 84.3543 39.456C 86.6242 35.5832 90.3403 35.5832 92.6122 39.456L 112.878 74.0428C 115.15 77.9214 113.293 81.0886 108.757 81.0886ZM 313.569 100.858C 314.103 100.589 314.697 100.385 315.339 100.25C 315.979 100.115 316.639 100.046 317.319 100.046C 318.516 100.046 319.597 100.242 320.559 100.634C 321.525 101.025 322.341 101.586 323.02 102.317C 323.696 103.052 324.214 103.938 324.569 104.977C 324.925 106.011 325.103 107.185 325.103 108.493C 325.103 110.326 324.783 111.89 324.141 113.18C 323.495 114.472 322.629 115.453 321.537 116.121C 321.778 116.199 322.054 116.324 322.37 116.496C 322.683 116.664 322.945 116.813 323.149 116.934C 323.479 117.104 323.838 117.257 324.218 117.396C 324.599 117.538 324.992 117.604 325.391 117.604C 325.79 117.604 326.156 117.582 326.484 117.534L 327.005 117.485L 326.039 119.705L 325.65 119.851C 325.391 119.95 324.982 120 324.429 120C 324.077 120 323.74 119.956 323.41 119.869C 323.082 119.78 322.773 119.675 322.487 119.554C 322.201 119.435 321.94 119.308 321.705 119.172C 321.47 119.037 321.268 118.922 321.094 118.827C 320.662 118.555 320.124 118.26 319.478 117.943C 318.836 117.622 318.153 117.358 317.42 117.152C 316.064 117.152 314.924 116.968 313.996 116.603C 313.069 116.234 312.257 115.636 311.564 114.809C 310.173 113.15 309.478 111.091 309.478 108.636C 309.478 106.816 309.831 105.237 310.547 103.885C 311.256 102.537 312.265 101.528 313.569 100.858ZM 315.134 114.02C 315.711 114.403 316.432 114.591 317.305 114.591C 318.575 114.591 319.494 114.124 320.063 113.186C 320.628 112.251 320.908 110.723 320.908 108.61C 320.908 107.754 320.871 107.014 320.794 106.394C 320.717 105.776 320.596 105.237 320.438 104.777C 320.371 104.571 320.261 104.343 320.1 104.095C 319.942 103.849 319.733 103.625 319.472 103.415C 319.211 103.209 318.899 103.035 318.532 102.892C 318.168 102.749 317.742 102.678 317.254 102.678C 316.643 102.678 316.086 102.809 315.578 103.07C 315.075 103.334 314.693 103.689 314.429 104.133C 313.82 105.195 313.514 106.705 313.514 108.659C 313.514 111.533 314.057 113.321 315.134 114.02ZM 340.056 111.196C 340.056 111.706 340.082 112.12 340.135 112.439C 340.186 112.756 340.267 113.008 340.368 113.18C 340.797 113.945 341.615 114.33 342.82 114.33C 343.61 114.33 344.242 114.157 344.716 113.814C 345.186 113.471 345.469 112.998 345.556 112.391C 345.572 112.312 345.585 112.223 345.593 112.128C 345.603 112.033 345.607 111.943 345.607 111.864L 345.607 100.264L 349.304 100.264L 349.304 112.439C 349.304 112.695 349.296 112.909 349.278 113.085C 349.262 113.261 349.228 113.422 349.185 113.575C 349.142 113.729 349.086 113.89 349.019 114.066C 348.895 114.403 348.693 114.75 348.407 115.118C 348.12 115.485 347.727 115.826 347.235 116.135C 346.739 116.444 346.131 116.7 345.41 116.902C 344.691 117.098 343.845 117.198 342.869 117.198C 341.464 117.198 340.271 117.013 339.291 116.639C 338.309 116.264 337.571 115.709 337.065 114.974C 336.907 114.768 336.778 114.56 336.672 114.351C 336.569 114.145 336.492 113.923 336.441 113.682C 336.385 113.442 336.346 113.172 336.32 112.869C 336.294 112.566 336.282 112.223 336.282 111.84L 336.282 100.264L 340.056 100.264L 340.056 111.196ZM 411.9 106.913C 412.352 107.821 412.747 108.683 413.087 109.496C 413.425 110.308 413.692 111.022 413.879 111.628C 413.846 111.307 413.81 110.941 413.777 110.536C 413.743 110.13 413.713 109.716 413.688 109.294C 413.66 108.873 413.634 108.463 413.619 108.073C 413.601 107.682 413.591 107.341 413.591 107.056L 413.516 100.264L 417.028 100.264L 417.028 116.89L 413.208 116.89L 410.092 110.524C 409.829 109.997 409.569 109.468 409.316 108.935C 409.065 108.4 408.826 107.886 408.599 107.403C 408.368 106.917 408.172 106.473 407.996 106.075C 407.838 105.679 407.718 105.351 407.629 105.096C 407.664 105.429 407.692 105.795 407.71 106.196C 407.745 106.592 407.765 107 407.775 107.415C 407.783 107.829 407.793 108.241 407.801 108.647C 407.808 109.054 407.812 109.432 407.812 109.781L 407.915 116.89L 404.401 116.89L 404.401 100.264L 408.437 100.264L 411.9 106.913ZM 431.723 114.139C 432.487 114.377 433.339 114.494 434.275 114.494C 436.395 114.494 437.456 113.737 437.456 112.221C 437.456 111.18 436.666 110.461 435.083 110.063L 433.078 109.559C 432.175 109.337 431.442 109.058 430.867 108.723C 430.296 108.386 429.842 107.962 429.512 107.45C 429.01 106.701 428.755 105.851 428.755 104.911C 428.755 104.144 428.914 103.445 429.226 102.815C 429.538 102.182 429.98 101.639 430.555 101.185C 431.13 100.73 431.808 100.379 432.6 100.129C 433.386 99.8833 434.265 99.7604 435.241 99.7604C 436.354 99.7604 437.438 99.9051 438.495 100.192C 439.554 100.484 440.483 100.888 441.283 101.403L 439.564 103.78C 438.724 103.316 437.981 102.991 437.328 102.797C 436.674 102.606 436.006 102.511 435.33 102.511C 434.58 102.511 433.967 102.69 433.497 103.052C 433.027 103.409 432.792 103.873 432.792 104.43C 432.792 104.864 432.934 105.203 433.21 105.449C 433.489 105.7 434.022 105.92 434.805 106.111L 437 106.664C 438.513 107.032 439.659 107.641 440.431 108.487C 441.21 109.335 441.595 110.384 441.595 111.63C 441.595 112.479 441.419 113.246 441.059 113.937C 440.704 114.623 440.2 115.218 439.55 115.709C 438.9 116.207 438.114 116.589 437.195 116.851C 436.271 117.114 435.251 117.247 434.121 117.247C 433.078 117.247 432.021 117.116 430.954 116.855C 429.886 116.595 428.884 116.228 427.947 115.753L 429.299 113.154C 430.15 113.573 430.958 113.898 431.723 114.139ZM 456.522 114.139L 463.006 114.139L 462.348 116.89L 452.749 116.89L 452.749 100.264L 456.522 100.264L 456.522 114.139ZM 479.445 91.8228L 465.487 91.8228L 465.487 38.0765L 479.445 38.0765L 479.445 91.8228ZM 505.58 106.913C 506.032 107.821 506.426 108.683 506.767 109.496C 507.105 110.308 507.37 111.022 507.56 111.628C 507.524 111.307 507.488 110.941 507.457 110.536C 507.421 110.13 507.392 109.716 507.366 109.294C 507.34 108.873 507.315 108.463 507.299 108.073C 507.281 107.682 507.273 107.341 507.273 107.056L 507.194 100.264L 510.709 100.264L 510.709 116.89L 506.888 116.89L 503.77 110.524C 503.51 109.997 503.249 109.468 502.998 108.935C 502.743 108.4 502.506 107.886 502.279 107.403C 502.048 106.917 501.852 106.473 501.676 106.075C 501.518 105.679 501.4 105.351 501.309 105.096C 501.342 105.429 501.372 105.795 501.39 106.196C 501.423 106.592 501.445 107 501.453 107.415C 501.463 107.829 501.471 108.241 501.479 108.647C 501.489 109.054 501.492 109.432 501.492 109.781L 501.593 116.89L 498.081 116.89L 498.081 100.264L 502.117 100.264L 505.58 106.913Z"/>
</defs>
</svg>
