<svg id="logo" width="245" height="67" viewBox="0 0 245 67" version="1.1" xmlns="http://www.w3.org/2000/svg" xmlns:xlink="http://www.w3.org/1999/xlink" xmlns:figma="http://www.figma.com/figma/ns">
<title>simpliciterlogo</title>
<desc>Created using Figma</desc>
<g id="Canvas" transform="translate(203 321)" figma:type="canvas">
<g id="simpliciterlogo" figma:type="frame">
<g id="Group" figma:type="frame">
<g id="Group" figma:type="frame">
<g id="Group" figma:type="frame">
<g id="Vector" figma:type="vector">
<use xlink:href="#path0_fill" transform="matrix(1.46209 0 0 1.46209 -190.761 -302.857)"/>
</g>
<g id="Vector" figma:type="vector">
<use xlink:href="#path1_fill" transform="matrix(1.46209 0 0 1.46209 -175.302 -302.754)"/>
</g>
<g id="Vector" figma:type="vector">
<use xlink:href="#path2_fill" transform="matrix(1.46209 0 0 1.46209 -168.409 -302.754)"/>
</g>
<g id="Vector" figma:type="vector">
<use xlink:href="#path3_fill" transform="matrix(1.46209 0 0 1.46209 -148.572 -302.754)"/>
</g>
<g id="Vector" figma:type="vector">
<use xlink:href="#path4_fill" transform="matrix(1.46209 0 0 1.46209 -133.976 -302.754)"/>
</g>
<g id="Vector" figma:type="vector">
<use xlink:href="#path5_fill" transform="matrix(1.46209 0 0 1.46209 -120.189 -302.754)"/>
</g>
<g id="Vector" figma:type="vector">
<use xlink:href="#path6_fill" transform="matrix(1.46209 0 0 1.46209 -114.259 -302.837)"/>
</g>
<g id="Vector" figma:type="vector">
<use xlink:href="#path7_fill" transform="matrix(1.46209 0 0 1.46209 -97.3846 -302.754)"/>
</g>
<g id="Vector" figma:type="vector">
<use xlink:href="#path8_fill" transform="matrix(1.46209 0 0 1.46209 -91.9722 -302.754)"/>
</g>
<g id="Vector" figma:type="vector">
<use xlink:href="#path9_fill" transform="matrix(1.46209 0 0 1.46209 -76.1467 -302.754)"/>
</g>
<g id="Vector" figma:type="vector">
<use xlink:href="#path10_fill" transform="matrix(1.46209 0 0 1.46209 -61.8224 -302.754)"/>
</g>
<g id="Vector" figma:type="vector">
<use xlink:href="#path11_fill" transform="matrix(1.46209 0 0 1.46209 -39.5552 -302.754)"/>
</g>
<g id="Vector" figma:type="vector">
<use xlink:href="#path12_fill" transform="matrix(1.46209 0 0 1.46209 -25.7631 -302.754)"/>
</g>
<g id="Vector" figma:type="vector">
<use xlink:href="#path13_fill" transform="matrix(1.46209 0 0 1.46209 -12.714 -302.857)"/>
</g>
<g id="Vector" figma:type="vector">
<use xlink:href="#path14_fill" transform="matrix(1.46209 0 0 1.46209 3.19182 -302.754)"/>
</g>
<g id="Vector" figma:type="vector">
<use xlink:href="#path15_fill" transform="matrix(1.46209 0 0 1.46209 20.4784 -302.754)"/>
</g>
</g>
<g id="Group" figma:type="frame">
<g id="Vector" figma:type="vector">
<use xlink:href="#path0_fill" transform="matrix(0.954242 0 0 0.954242 -142.169 -277.206)"/>
</g>
<g id="Vector" figma:type="vector">
<use xlink:href="#path16_fill" transform="matrix(0.954242 0 0 0.954242 -127.823 -277.206)"/>
</g>
<g id="Vector" figma:type="vector">
<use xlink:href="#path17_fill" transform="matrix(0.954242 0 0 0.954242 -111.046 -277.139)"/>
</g>
<g id="Vector" figma:type="vector">
<use xlink:href="#path18_fill" transform="matrix(0.954242 0 0 0.954242 -97.8827 -277.139)"/>
</g>
<g id="Vector" figma:type="vector">
<use xlink:href="#path19_fill" transform="matrix(0.954242 0 0 0.954242 -82.5175 -277.139)"/>
</g>
<g id="Vector" figma:type="vector">
<use xlink:href="#path20_fill" transform="matrix(0.954242 0 0 0.954242 -67.2966 -277.139)"/>
</g>
<g id="Vector" figma:type="vector">
<use xlink:href="#path21_fill" transform="matrix(0.954242 0 0 0.954242 -58.5408 -277.206)"/>
</g>
<g id="Vector" figma:type="vector">
<use xlink:href="#path22_fill" transform="matrix(0.954242 0 0 0.954242 -41.7634 -277.139)"/>
</g>
<g id="Vector" figma:type="vector">
<use xlink:href="#path23_fill" transform="matrix(0.954242 0 0 0.954242 -26.1 -277.206)"/>
</g>
</g>
<g id="Group" figma:type="frame">
<g id="Vector" figma:type="vector">
<use xlink:href="#path24_fill" transform="matrix(0.954242 0 0 0.954242 -202.082 -260.242)"/>
</g>
<g id="Vector" figma:type="vector">
<use xlink:href="#path25_fill" transform="matrix(0.954242 0 0 0.954242 -194.12 -260.25)"/>
</g>
<g id="Vector" figma:type="vector">
<use xlink:href="#path26_fill" transform="matrix(0.954242 0 0 0.954242 -185.118 -260.207)"/>
</g>
<g id="Vector" figma:type="vector">
<use xlink:href="#path27_fill" transform="matrix(0.954242 0 0 0.954242 -175.432 -260.207)"/>
</g>
<g id="Vector" figma:type="vector">
<use xlink:href="#path28_fill" transform="matrix(0.954242 0 0 0.954242 -167.961 -260.207)"/>
</g>
<g id="Vector" figma:type="vector">
<use xlink:href="#path29_fill" transform="matrix(0.954242 0 0 0.954242 -160.83 -260.207)"/>
</g>
<g id="Vector" figma:type="vector">
<use xlink:href="#path30_fill" transform="matrix(0.954242 0 0 0.954242 -154.204 -260.207)"/>
</g>
<g id="Vector" figma:type="vector">
<use xlink:href="#path31_fill" transform="matrix(0.954242 0 0 0.954242 -141.742 -260.207)"/>
</g>
<g id="Vector" figma:type="vector">
<use xlink:href="#path32_fill" transform="matrix(0.954242 0 0 0.954242 -134.271 -260.207)"/>
</g>
<g id="Vector" figma:type="vector">
<use xlink:href="#path33_fill" transform="matrix(0.954242 0 0 0.954242 -126.941 -260.25)"/>
</g>
<g id="Vector" figma:type="vector">
<use xlink:href="#path34_fill" transform="matrix(0.954242 0 0 0.954242 -117.939 -260.207)"/>
</g>
<g id="Vector" figma:type="vector">
<use xlink:href="#path35_fill" transform="matrix(0.954242 0 0 0.954242 -110.088 -260.207)"/>
</g>
<g id="Vector" figma:type="vector">
<use xlink:href="#path36_fill" transform="matrix(0.954242 0 0 0.954242 -102.958 -260.207)"/>
</g>
<g id="Vector" figma:type="vector">
<use xlink:href="#path37_fill" transform="matrix(0.954242 0 0 0.954242 -95.6012 -260.207)"/>
</g>
<g id="Vector" figma:type="vector">
<use xlink:href="#path38_fill" transform="matrix(0.954242 0 0 0.954242 -86.4096 -260.25)"/>
</g>
<g id="Vector" figma:type="vector">
<use xlink:href="#path39_fill" transform="matrix(0.954242 0 0 0.954242 -78.7811 -254.902)"/>
</g>
<g id="Vector" figma:type="vector">
<use xlink:href="#path40_fill" transform="matrix(0.954242 0 0 0.954242 -71.0871 -260.25)"/>
</g>
<g id="Vector" figma:type="vector">
<use xlink:href="#path41_fill" transform="matrix(0.954242 0 0 0.954242 -63.2521 -260.207)"/>
</g>
<g id="Vector" figma:type="vector">
<use xlink:href="#path42_fill" transform="matrix(0.954242 0 0 0.954242 -59.0348 -260.207)"/>
</g>
<g id="Vector" figma:type="vector">
<use xlink:href="#path43_fill" transform="matrix(0.954242 0 0 0.954242 -49.3452 -260.207)"/>
</g>
<g id="Vector" figma:type="vector">
<use xlink:href="#path44_fill" transform="matrix(0.954242 0 0 0.954242 -41.8772 -260.207)"/>
</g>
<g id="Vector" figma:type="vector">
<use xlink:href="#path45_fill" transform="matrix(0.954242 0 0 0.954242 -34.7468 -260.207)"/>
</g>
<g id="Vector" figma:type="vector">
<use xlink:href="#path46_fill" transform="matrix(0.954242 0 0 0.954242 -23.6055 -260.25)"/>
</g>
<g id="Vector" figma:type="vector">
<use xlink:href="#path47_fill" transform="matrix(0.954242 0 0 0.954242 -16.1802 -260.25)"/>
</g>
<g id="Vector" figma:type="vector">
<use xlink:href="#path48_fill" transform="matrix(0.954242 0 0 0.954242 -7.17873 -260.207)"/>
</g>
<g id="Vector" figma:type="vector">
<use xlink:href="#path49_fill" transform="matrix(0.954242 0 0 0.954242 -0.516874 -260.207)"/>
</g>
<g id="Vector" figma:type="vector">
<use xlink:href="#path50_fill" transform="matrix(0.954242 0 0 0.954242 7.57039 -260.207)"/>
</g>
<g id="Vector" figma:type="vector">
<use xlink:href="#path51_fill" transform="matrix(0.954242 0 0 0.954242 15.5626 -260.207)"/>
</g>
<g id="Vector" figma:type="vector">
<use xlink:href="#path52_fill" transform="matrix(0.954242 0 0 0.954242 19.3703 -260.25)"/>
</g>
<g id="Vector" figma:type="vector">
<use xlink:href="#path53_fill" transform="matrix(0.954242 0 0 0.954242 28.3718 -260.207)"/>
</g>
<g id="Vector" figma:type="vector">
<use xlink:href="#path54_fill" transform="matrix(0.954242 0 0 0.954242 36.6491 -260.25)"/>
</g>
</g>
<g id="Group" figma:type="frame">
<g id="Vector" figma:type="vector">
<use xlink:href="#path55_fill" transform="matrix(2.02589 0 0 2.02589 -203 -321)"/>
</g>
</g>
</g>
</g>
</g>
</g>
<defs>
<path id="path0_fill" d="M 6.64476 1.93654C 6.36318 1.61852 5.98886 1.36108 5.51841 1.16493C 5.04795 0.968437 4.51567 0.870182 3.91472 0.870182C 3.03219 0.870182 2.39004 1.03622 1.98483 1.36827C 1.58305 1.70033 1.38045 2.15185 1.38045 2.72251C 1.38045 3.0217 1.43542 3.26716 1.54187 3.45921C 1.65176 3.65091 1.81658 3.81692 2.04322 3.95728C 2.26643 4.09763 2.55489 4.21917 2.90859 4.32221C 3.25886 4.42491 3.67437 4.52795 4.15169 4.63064C 4.68739 4.74293 5.16814 4.86924 5.59738 5.0096C 6.0232 5.14995 6.38721 5.32522 6.68597 5.53575C 6.98816 5.74628 7.21824 6.00131 7.3762 6.30051C 7.5376 6.60004 7.61656 6.97419 7.61656 7.42332C 7.61656 7.8817 7.52727 8.27914 7.3487 8.61599C 7.17014 8.95284 6.92292 9.23354 6.60356 9.45776C 6.2842 9.68233 5.903 9.84837 5.46345 9.95621C 5.02047 10.0637 4.53972 10.1174 4.01089 10.1174C 2.46559 10.1174 1.12637 9.63578 2.0121e-05 8.67213L 0.494493 7.87212C 0.67306 8.05938 0.885962 8.23704 1.13321 8.40546C 1.38389 8.57389 1.65862 8.72109 1.96425 8.84741C 2.26987 8.97373 2.59609 9.07196 2.94292 9.14214C 3.28975 9.21232 3.65717 9.24724 4.04178 9.24724C 4.83846 9.24724 5.46003 9.10483 5.90645 8.81933C 6.35287 8.53417 6.57262 8.10149 6.57262 7.52159C 6.57262 7.21281 6.51084 6.95298 6.38378 6.74279C 6.25672 6.53226 6.06784 6.3498 5.81372 6.19541C 5.55961 6.04102 5.24712 5.90785 4.87282 5.79556C 4.49508 5.68328 4.05898 5.57102 3.56106 5.45873C 3.03566 5.33721 2.5755 5.21089 2.18059 5.07978C 1.78912 4.94901 1.45601 4.78502 1.18473 4.58852C 0.910008 4.39237 0.70739 4.15618 0.570031 3.87993C 0.436105 3.60401 0.367438 3.26511 0.367438 2.86287C 0.367438 2.4045 0.45329 1.99507 0.628423 1.63494C 0.800122 1.27481 1.04738 0.975292 1.36674 0.736691C 1.6861 0.498432 2.06037 0.315965 2.49305 0.189647C 2.9223 0.0633286 3.40307 -7.1875e-06 3.92847 -7.1875e-06C 4.59467 -7.1875e-06 5.18876 0.100643 5.70729 0.301931C 6.22926 0.502876 6.69971 0.785972 7.12209 1.15089L 6.64476 1.93654Z"/>
<path id="path1_fill" d="M 0.985207 0L -8.38374e-06 0L -8.38374e-06 9.96305L 0.985207 9.96305L 0.985207 0Z"/>
<path id="path2_fill" d="M 8.8528 9.96305L 8.8528 1.78214L 5.20935 8.11072L 4.62903 8.11072L 0.985536 1.78214L 0.985536 9.96305L -1.50907e-05 9.96305L -1.50907e-05 -1.33721e-06L 1.01303 -1.33721e-06L 4.91059 6.81981L 8.83905 -1.33721e-06L 9.83835 -1.33721e-06L 9.83835 9.96305L 8.8528 9.96305Z"/>
<path id="path3_fill" d="M -1.17372e-05 9.96305L -1.17372e-05 -1.33721e-06L 4.13795 -1.33721e-06C 4.57063 -1.33721e-06 4.96896 0.0913954 5.32953 0.273855C 5.6901 0.456315 6.00259 0.694582 6.267 0.989325C 6.52799 1.28407 6.73404 1.61851 6.88514 1.99267C 7.03623 2.36683 7.10835 2.74579 7.10835 3.12919C 7.10835 3.54101 7.03968 3.93605 6.89889 4.31501C 6.75809 4.69396 6.55889 5.02842 6.30821 5.31837C 6.05409 5.60832 5.75194 5.84213 5.39824 6.02014C 5.04797 6.1978 4.65648 6.28647 4.2238 6.28647L 0.985539 6.28647L 0.985539 9.96305L -1.17372e-05 9.96305ZM 0.985539 5.41662L 4.18259 5.41662C 4.47448 5.41662 4.73888 5.35329 4.97582 5.22732C 5.2162 5.101 5.41882 4.93257 5.59052 4.72204C 5.75878 4.51151 5.88928 4.26811 5.98543 3.9922C 6.07815 3.71628 6.1228 3.42873 6.1228 3.12919C 6.1228 2.82076 6.07126 2.52841 5.96137 2.25215C 5.85492 1.97624 5.71073 1.7356 5.52529 1.52952C 5.34329 1.32378 5.12695 1.16254 4.8797 1.04547C 4.62902 0.928734 4.36803 0.870188 4.09675 0.870188L 0.985539 0.870188L 0.985539 5.41662Z"/>
<path id="path4_fill" d="M 1.17372e-05 9.96305L 1.17372e-05 -1.33721e-06L 0.985562 -1.33721e-06L 0.985562 9.09319L 6.75462 9.09319L 6.75462 9.96305L 1.17372e-05 9.96305Z"/>
<path id="path5_fill" d="M 0.985214 0L 0 0L 0 9.96305L 0.985214 9.96305L 0.985214 0Z"/>
<path id="path6_fill" d="M 1.84442e-05 4.96748C 1.84442e-05 4.36875 0.103011 3.77244 0.315918 3.1785C 0.525391 2.58457 0.834467 2.05362 1.23624 1.58566C 1.64145 1.11804 2.13937 0.73668 2.73002 0.44228C 3.32066 0.147538 3.99028 -1.83866e-06 4.74232 -1.83866e-06C 5.63516 -1.83866e-06 6.39751 0.201286 7.02937 0.603518C 7.66465 1.00575 8.13166 1.52951 8.43042 2.17514L 7.65777 2.65233C 7.49637 2.32473 7.30065 2.04881 7.07057 1.82424C 6.8405 1.59968 6.59667 1.41723 6.33226 1.27722C 6.07128 1.13687 5.79656 1.03622 5.51497 0.975284C 5.23338 0.914692 4.95865 0.884228 4.68737 0.884228C 4.08642 0.884228 3.55415 1.00575 3.094 1.24914C 2.63728 1.49219 2.24928 1.81023 1.93335 2.20322C 1.62086 2.59621 1.38389 3.03814 1.22249 3.52938C 1.06453 4.02027 0.985569 4.51835 0.985569 5.02362C 0.985569 5.57545 1.08171 6.10401 1.27057 6.60928C 1.46631 7.11455 1.72731 7.56128 2.06041 7.94948C 2.3935 8.33768 2.78839 8.64646 3.24168 8.87548C 3.6984 9.10483 4.19287 9.21952 4.72857 9.21952C 5.01016 9.21952 5.29862 9.18426 5.59394 9.11409C 5.88927 9.04391 6.17429 8.93162 6.45244 8.77723C 6.73059 8.62284 6.9847 8.43114 7.21821 8.20213C 7.45515 7.97277 7.65093 7.69445 7.81232 7.36719L 8.62618 7.78791C 8.46821 8.16241 8.24154 8.49208 7.95309 8.77723C 7.6612 9.06273 7.33842 9.30338 6.98129 9.49987C 6.62415 9.69637 6.2464 9.84597 5.84806 9.94901C 5.44971 10.052 5.05483 10.1034 4.67366 10.1034C 3.98686 10.1034 3.35845 9.95381 2.78497 9.65428C 2.2115 9.35508 1.72042 8.96448 1.30834 8.48248C 0.896266 8.00083 0.573493 7.45346 0.343417 6.84104C 0.11334 6.22827 1.84442e-05 5.60352 1.84442e-05 4.96748Z"/>
<path id="path7_fill" d="M 0.985229 0L 1.3414e-05 0L 1.3414e-05 9.96305L 0.985229 9.96305L 0.985229 0Z"/>
<path id="path8_fill" d="M 8.10765 0.870188L 4.54661 0.870188L 4.54661 9.96305L 3.56102 9.96305L 3.56102 0.870188L -1.84442e-05 0.870188L -1.84442e-05 -1.33721e-06L 8.10765 -1.33721e-06L 8.10765 0.870188Z"/>
<path id="path9_fill" d="M 6.71344 9.09319L 6.71344 9.96305L -1.17372e-05 9.96305L -1.17372e-05 -1.33721e-06L 6.58982 -1.33721e-06L 6.58982 0.870188L 0.985539 0.870188L 0.985539 4.46223L 5.86869 4.46223L 5.86869 5.29029L 0.985539 5.29029L 0.985539 9.09319L 6.71344 9.09319Z"/>
<path id="path10_fill" d="M -1.67675e-06 9.96305L -1.67675e-06 -1.33721e-06L 4.22381 -1.33721e-06C 4.65306 -1.33721e-06 5.05139 0.0913954 5.41195 0.273855C 5.77252 0.456315 6.08501 0.694582 6.34942 0.989325C 6.61041 1.28407 6.81646 1.61851 6.96068 1.99267C 7.10834 2.36683 7.18046 2.74579 7.18046 3.12919C 7.18046 3.49411 7.12553 3.84261 7.01908 4.17466C 6.90919 4.50672 6.75807 4.80626 6.56577 5.07293C 6.37346 5.33926 6.14338 5.56382 5.86866 5.74628C 5.59737 5.92874 5.29178 6.05266 4.95525 6.11805L 7.40368 9.96305L 6.29103 9.96305L 3.9422 6.28647L 0.985549 6.28647L 0.985549 9.96305L -1.67675e-06 9.96305ZM 0.985549 5.41662L 4.25127 5.41662C 4.54316 5.41662 4.80755 5.35329 5.04793 5.22732C 5.28488 5.101 5.49093 4.93018 5.65919 4.71485C 5.82746 4.49987 5.95796 4.25649 6.05411 3.98536C 6.14682 3.7139 6.19491 3.42873 6.19491 3.12919C 6.19491 2.83 6.13994 2.54245 6.03348 2.26619C 5.9236 1.99028 5.7794 1.74964 5.59397 1.54356C 5.41196 1.33782 5.19562 1.17418 4.94838 1.05265C 4.70113 0.930786 4.44014 0.870188 4.16542 0.870188L 0.985549 0.870188L 0.985549 5.41662Z"/>
<path id="path11_fill" d="M -1.00605e-05 9.96305L -1.00605e-05 -1.33721e-06L 0.985541 -1.33721e-06L 0.985541 9.09319L 6.75808 9.09319L 6.75808 9.96305L -1.00605e-05 9.96305Z"/>
<path id="path12_fill" d="M 6.71343 9.09319L 6.71343 9.96305L -2.0121e-05 9.96305L -2.0121e-05 -1.33721e-06L 6.58637 -1.33721e-06L 6.58637 0.870188L 0.985573 0.870188L 0.985573 4.46223L 5.86868 4.46223L 5.86868 5.29029L 0.985573 5.29029L 0.985573 9.09319L 6.71343 9.09319Z"/>
<path id="path13_fill" d="M 7.88099 8.57389C 6.95038 9.59368 5.88242 10.1034 4.67366 10.1034C 3.99717 10.1034 3.37559 9.95826 2.80555 9.66831C 2.23895 9.37836 1.74791 8.99495 1.32897 8.51775C 0.910022 8.04055 0.58376 7.50036 0.350249 6.89684C 0.116739 6.29366 1.84442e-05 5.6737 1.84442e-05 5.03766C 1.84442e-05 4.37355 0.11334 3.7375 0.343417 3.12919C 0.573493 2.52122 0.896266 1.98582 1.30834 1.52266C 1.72042 1.05949 2.20805 0.690129 2.77122 0.414214C 3.33439 0.137958 3.94908 -7.1875e-06 4.61527 -7.1875e-06C 5.10289 -7.1875e-06 5.54932 0.0537537 5.95453 0.161586C 6.3563 0.269077 6.71687 0.418664 7.02937 0.610366C 7.34529 0.802411 7.61658 1.03142 7.84665 1.29809C 8.07673 1.56476 8.27245 1.85711 8.43042 2.17513L 7.67152 2.68041C 7.34186 2.06285 6.91605 1.60927 6.39065 1.31932C 5.86525 1.02903 5.26771 0.884223 4.60152 0.884223C 4.04865 0.884223 3.54729 1.00096 3.10087 1.23511C 2.65789 1.46892 2.27673 1.77975 1.96081 2.16794C 1.64832 2.55648 1.40794 3.00083 1.23624 3.50131C 1.06798 4.00179 0.985569 4.51836 0.985569 5.0517C 0.985569 5.61311 1.08171 6.14611 1.27057 6.65138C 1.46631 7.15665 1.73071 7.5986 2.06724 7.97756C 2.40377 8.35651 2.80214 8.65809 3.25542 8.88266C 3.71214 9.10722 4.20662 9.21951 4.74232 9.21951C 5.3158 9.21951 5.86181 9.086 6.38378 8.81933C 6.90231 8.55266 7.40366 8.12955 7.88099 7.54965L 7.88099 5.89383L 5.65577 5.89383L 5.65577 5.1359L 8.71202 5.1359L 8.71202 10.0332L 7.88099 10.0332L 7.88099 8.57389Z"/>
<path id="path14_fill" d="M 4.1826 -1.33721e-06L 5.0136 -1.33721e-06L 9.16531 9.96305L 8.12137 9.96305L 6.82675 6.84789L 2.33856 6.84789L 1.05765 9.96305L -5.03025e-06 9.96305L 4.1826 -1.33721e-06ZM 6.60353 6.07594L 4.59123 1.1509L 2.54802 6.07594L 6.60353 6.07594Z"/>
<path id="path15_fill" d="M 1.3414e-05 9.96305L 1.3414e-05 -1.33721e-06L 0.985564 -1.33721e-06L 0.985564 9.09319L 6.75806 9.09319L 6.75806 9.96305L 1.3414e-05 9.96305Z"/>
<path id="path16_fill" d="M 4.68738 10.1034C 3.99372 10.1034 3.35841 9.96066 2.7815 9.6755C 2.2046 9.39 1.70668 9.01103 1.29461 8.53862C 0.882528 8.06621 0.563154 7.52604 0.336512 6.91807C 0.113303 6.3101 -1.17372e-05 5.68774 -1.17372e-05 5.0517C -1.17372e-05 4.38759 0.120191 3.75154 0.357136 3.14323C 0.597514 2.53526 0.930619 1.99747 1.353 1.52951C 1.77538 1.06189 2.26986 0.690129 2.84333 0.414214C 3.41681 0.137958 4.03494 -7.1875e-06 4.70113 -7.1875e-06C 5.39479 -7.1875e-06 6.03006 0.147533 6.6104 0.442275C 7.18731 0.736675 7.67839 1.12283 8.08703 1.59969C 8.49567 2.07689 8.81161 2.61708 9.03825 3.2206C 9.26146 3.82378 9.37477 4.43894 9.37477 5.06574C 9.37477 5.72985 9.25457 6.36624 9.01762 6.97421C 8.77725 7.58218 8.44759 8.11792 8.03207 8.58074C 7.61313 9.04391 7.11865 9.4136 6.54518 9.68952C 5.9717 9.96543 5.35357 10.1034 4.68738 10.1034ZM 0.985539 5.0517C 0.985539 5.59429 1.07483 6.11598 1.2534 6.61646C 1.43197 7.11694 1.68607 7.5613 2.0123 7.9495C 2.34196 8.33769 2.73001 8.64646 3.17986 8.87547C 3.63314 9.10483 4.13451 9.21951 4.68738 9.21951C 5.25055 9.21951 5.76221 9.09765 6.22236 8.8546C 6.68251 8.61121 7.07056 8.29318 7.38992 7.90019C 7.70928 7.50754 7.95654 7.06321 8.12824 6.56718C 8.30337 6.07149 8.38922 5.56622 8.38922 5.0517C 8.38922 4.50911 8.29649 3.98775 8.11449 3.48727C 7.93249 2.98679 7.67494 2.54452 7.34872 2.16111C 7.01905 1.77771 6.63101 1.47131 6.18115 1.24195C 5.72787 1.01293 5.23338 0.898263 4.68738 0.898263C 4.12421 0.898263 3.61255 1.01739 3.1524 1.25599C 2.69225 1.49459 2.3042 1.81022 1.98484 2.20321C 1.66548 2.5962 1.41822 3.04054 1.24653 3.53622C 1.07139 4.03191 0.985539 4.53718 0.985539 5.0517Z"/>
<path id="path17_fill" d="M 1.3414e-05 9.96305L 1.3414e-05 -1.33721e-06L 0.985564 -1.33721e-06L 0.985564 9.09319L 6.75463 9.09319L 6.75463 9.96305L 1.3414e-05 9.96305Z"/>
<path id="path18_fill" d="M 4.1929 9.14933C 4.82476 9.14933 5.34671 9.02987 5.76565 8.79127C 6.18117 8.55267 6.51427 8.23943 6.76495 7.85124C 7.0122 7.46304 7.1839 7.02109 7.28349 6.52506C 7.38307 6.02937 7.43113 5.5289 7.43113 5.02362L 7.43113 -1.33721e-06L 8.41668 -1.33721e-06L 8.41668 5.02362C 8.41668 5.69732 8.34112 6.33577 8.19346 6.93895C 8.04236 7.54247 7.79855 8.0734 7.46546 8.53177C 7.13579 8.99015 6.69971 9.35507 6.16401 9.62619C 5.63174 9.89766 4.97926 10.0332 4.21005 10.0332C 3.42023 10.0332 2.7575 9.89048 2.21493 9.60532C 1.67579 9.31982 1.2431 8.94327 0.913437 8.47565C 0.587209 8.00803 0.350248 7.47468 0.209454 6.87595C 0.0686612 6.27722 -1.3414e-05 5.65966 -1.3414e-05 5.02362L -1.3414e-05 -1.33721e-06L 0.97183 -1.33721e-06L 0.97183 5.02362C 0.97183 5.54738 1.02332 6.05745 1.12634 6.55314C 1.22936 7.04917 1.40451 7.48873 1.65519 7.87213C 1.90244 8.25588 2.2321 8.56465 2.64761 8.79846C 3.05969 9.03227 3.57479 9.14933 4.1929 9.14933Z"/>
<path id="path19_fill" d="M 8.10761 0.870188L 4.54658 0.870188L 4.54658 9.96305L 3.56103 9.96305L 3.56103 0.870188L -8.38374e-06 0.870188L -8.38374e-06 -1.33721e-06L 8.10761 -1.33721e-06L 8.10761 0.870188Z"/>
<path id="path20_fill" d="M 0.98519 0L 1.67675e-05 0L 1.67675e-05 9.96305L 0.98519 9.96305L 0.98519 0Z"/>
<path id="path21_fill" d="M 4.6874 10.1034C 3.99373 10.1034 3.35843 9.96066 2.78152 9.6755C 2.20461 9.39 1.71014 9.01103 1.29462 8.53862C 0.882546 8.06621 0.563176 7.52604 0.339967 6.91807C 0.113325 6.3101 6.70699e-06 5.68774 6.70699e-06 5.0517C 6.70699e-06 4.38759 0.120171 3.75154 0.36055 3.14323C 0.597494 2.53526 0.930595 1.99747 1.35298 1.52951C 1.77535 1.06189 2.27331 0.690129 2.84335 0.414214C 3.41683 0.137958 4.03491 -7.1875e-06 4.70111 -7.1875e-06C 5.3982 -7.1875e-06 6.03351 0.147533 6.61042 0.442275C 7.18733 0.736675 7.67836 1.12283 8.08701 1.59969C 8.49565 2.07689 8.81158 2.61708 9.03823 3.2206C 9.26143 3.82378 9.37475 4.43894 9.37475 5.06574C 9.37475 5.72985 9.25459 6.36624 9.01764 6.97421C 8.77726 7.58218 8.4476 8.11792 8.03209 8.58074C 7.61315 9.04391 7.11863 9.4136 6.54515 9.68952C 5.97511 9.96543 5.35359 10.1034 4.6874 10.1034ZM 0.985557 5.0517C 0.985557 5.59429 1.07485 6.11598 1.25342 6.61646C 1.43199 7.11694 1.68609 7.5613 2.01231 7.9495C 2.34198 8.33769 2.73346 8.64646 3.18331 8.87547C 3.63316 9.10483 4.13453 9.21951 4.6874 9.21951C 5.25057 9.21951 5.76222 9.09765 6.22238 8.8546C 6.68253 8.61121 7.07058 8.29318 7.38994 7.90019C 7.7093 7.50754 7.95651 7.06321 8.12821 6.56718C 8.30335 6.07149 8.3892 5.56622 8.3892 5.0517C 8.3892 4.50911 8.29994 3.98775 8.1145 3.48727C 7.9325 2.98679 7.6784 2.54452 7.34873 2.16111C 7.01907 1.77771 6.63102 1.47131 6.18117 1.24195C 5.73132 1.01293 5.2334 0.898263 4.6874 0.898263C 4.12423 0.898263 3.61253 1.01739 3.15238 1.25599C 2.69566 1.49459 2.30422 1.81022 1.98486 2.20321C 1.6655 2.5962 1.42168 3.04054 1.24654 3.53622C 1.07141 4.03191 0.985557 4.53718 0.985557 5.0517Z"/>
<path id="path22_fill" d="M 0.985541 1.82425L 0.985541 9.96305L -1.00605e-05 9.96305L -1.00605e-05 -1.33721e-06L 0.758928 -1.33721e-06L 7.37617 8.29318L 7.37617 0.0140394L 8.36172 0.0140394L 8.36172 9.96305L 7.50323 9.96305L 0.985541 1.82425Z"/>
<path id="path23_fill" d="M 6.64131 1.93654C 6.35973 1.61852 5.98541 1.36108 5.51496 1.16493C 5.04794 0.968437 4.51226 0.870182 3.91132 0.870182C 3.02878 0.870182 2.38663 1.03622 1.98486 1.36827C 1.57965 1.70033 1.37704 2.15185 1.37704 2.72251C 1.37704 3.0217 1.43197 3.26716 1.53842 3.45921C 1.64831 3.65091 1.81313 3.81692 2.03977 3.95728C 2.26641 4.09763 2.55487 4.21917 2.90514 4.32221C 3.25884 4.42491 3.67092 4.52795 4.15168 4.63064C 4.68738 4.74293 5.16816 4.86924 5.59397 5.0096C 6.01979 5.14995 6.38377 5.32522 6.68596 5.53575C 6.98471 5.74628 7.21479 6.00131 7.37619 6.30051C 7.53415 6.60004 7.61311 6.97419 7.61311 7.42332C 7.61311 7.8817 7.52386 8.27914 7.3453 8.61599C 7.16673 8.95284 6.91947 9.23354 6.60011 9.45776C 6.28075 9.68233 5.89959 9.84837 5.46004 9.95621C 5.02049 10.0637 4.53627 10.1174 4.01087 10.1174C 2.46215 10.1174 1.12635 9.63578 6.70699e-06 8.67213L 0.491042 7.87212C 0.669609 8.05938 0.882515 8.23704 1.1332 8.40546C 1.38044 8.57389 1.65861 8.72109 1.9608 8.84741C 2.26642 8.97373 2.59264 9.07196 2.93947 9.14214C 3.2863 9.21232 3.65377 9.24724 4.03837 9.24724C 4.83505 9.24724 5.45658 9.10483 5.903 8.81933C 6.34942 8.53417 6.57265 8.10149 6.57265 7.52159C 6.57265 7.21281 6.50739 6.95298 6.38377 6.74279C 6.25671 6.53226 6.06439 6.3498 5.81028 6.19541C 5.55959 6.04102 5.24367 5.90785 4.86937 5.79556C 4.49506 5.68328 4.05897 5.57102 3.56104 5.45873C 3.03564 5.33721 2.57548 5.21089 2.18058 5.07978C 1.78567 4.94901 1.45256 4.78502 1.18128 4.58852C 0.909992 4.39237 0.703984 4.15618 0.570059 3.87993C 0.4327 3.60401 0.363987 3.26511 0.363987 2.86287C 0.363987 2.4045 0.44984 1.99507 0.624973 1.63494C 0.800106 1.27481 1.04393 0.975292 1.36329 0.736691C 1.68265 0.498432 2.05696 0.315965 2.48964 0.189647C 2.92232 0.0633286 3.39962 -7.1875e-06 3.92502 -7.1875e-06C 4.59122 -7.1875e-06 5.18532 0.100643 5.70728 0.301931C 6.22581 0.502876 6.6997 0.785972 7.12208 1.15089L 6.64131 1.93654Z"/>
<path id="path24_fill" d="M -1.67675e-06 3.2158C -1.67675e-06 2.82829 0.0652322 2.44215 0.202591 2.05772C 0.339951 1.67294 0.539118 1.32926 0.800101 1.02664C 1.06108 0.723685 1.3839 0.47686 1.76507 0.286184C 2.14968 0.095509 2.58237 6.68605e-07 3.07 6.68605e-07C 3.64691 6.68605e-07 4.14138 0.130081 4.55002 0.390591C 4.9621 0.651101 5.26086 0.990341 5.4566 1.40798L 4.95525 1.7171C 4.85223 1.50486 4.72514 1.32617 4.57748 1.18103C 4.42982 1.03554 4.26846 0.917426 4.10019 0.82671C 3.92849 0.735651 3.75335 0.670615 3.57135 0.631247C 3.38935 0.59188 3.21076 0.572368 3.03219 0.572368C 2.64415 0.572368 2.30075 0.651104 2.00199 0.808574C 1.70667 0.966044 1.45601 1.17179 1.24997 1.42613C 1.04737 1.68048 0.89285 1.96667 0.789831 2.28469C 0.686811 2.60271 0.635276 2.92517 0.635276 3.25209C 0.635276 3.60948 0.697105 3.95182 0.824162 4.27874C 0.947785 4.606 1.11604 4.89491 1.33238 5.14652C 1.54873 5.39779 1.80283 5.5977 2.09816 5.74593C 2.39348 5.8945 2.71286 5.96845 3.05969 5.96845C 3.24169 5.96845 3.43056 5.94586 3.61943 5.90033C 3.81173 5.85515 3.99716 5.78222 4.17573 5.68226C 4.3543 5.5823 4.52255 5.45838 4.67364 5.30981C 4.82474 5.16158 4.95179 4.98153 5.05481 4.76928L 5.58365 5.04178C 5.48063 5.28415 5.3364 5.49775 5.14753 5.68226C 4.95866 5.86712 4.74921 6.02322 4.51913 6.15022C 4.28905 6.27757 4.0418 6.37445 3.78425 6.44086C 3.5267 6.50761 3.2726 6.54082 3.02192 6.54082C 2.57893 6.54082 2.17371 6.44394 1.80284 6.25018C 1.43197 6.05643 1.11259 5.80345 0.844744 5.49159C 0.576894 5.17973 0.370877 4.82543 0.223215 4.42867C 0.0721203 4.03192 -1.67675e-06 3.62762 -1.67675e-06 3.2158Z"/>
<path id="path25_fill" d="M 3.03564 6.54116C 2.58579 6.54116 2.17372 6.44873 1.79942 6.26387C 1.42855 6.07936 1.10574 5.83392 0.841323 5.52822C 0.573473 5.22218 0.367456 4.87267 0.219795 4.47899C 0.0755677 4.08532 1.50907e-05 3.68239 1.50907e-05 3.27057C 1.50907e-05 2.84061 0.0789732 2.42879 0.233502 2.03512C 0.388031 1.64144 0.600936 1.29332 0.875655 0.990358C 1.15037 0.6874 1.46975 0.446729 1.84062 0.268035C 2.21149 0.0893413 2.61327 8.35756e-06 3.04595 8.35756e-06C 3.49581 8.35756e-06 3.90787 0.0955167 4.27874 0.286192C 4.65305 0.47721 4.97242 0.726766 5.23684 1.03589C 5.50125 1.34466 5.70726 1.69452 5.85149 2.08511C 5.99572 2.47571 6.07127 2.87383 6.07127 3.27983C 6.07127 3.70979 5.99231 4.12161 5.83778 4.51528C 5.68325 4.90896 5.47035 5.25572 5.19907 5.55526C 4.93122 5.85513 4.60841 6.09442 4.23754 6.27311C 3.86667 6.4518 3.46832 6.54116 3.03564 6.54116ZM 0.63873 3.27057C 0.63873 3.6218 0.697111 3.95935 0.813867 4.28353C 0.927188 4.60771 1.092 4.89526 1.3049 5.14653C 1.51781 5.3978 1.76851 5.5977 2.0604 5.74627C 2.35229 5.8945 2.67851 5.96879 3.03564 5.96879C 3.39964 5.96879 3.73275 5.89005 4.02807 5.73258C 4.32682 5.57511 4.57749 5.36904 4.78696 5.11469C 4.993 4.86034 5.15097 4.57279 5.26429 4.25169C 5.37761 3.93059 5.43255 3.60366 5.43255 3.27057C 5.43255 2.91935 5.37417 2.58182 5.25398 2.25764C 5.13722 1.9338 4.96898 1.64761 4.75951 1.39908C 4.5466 1.1509 4.29246 0.952358 4.00057 0.804131C 3.70868 0.655904 3.38934 0.581611 3.03564 0.581611C 2.67164 0.581611 2.34197 0.658635 2.04322 0.813366C 1.74446 0.967755 1.49379 1.17213 1.28432 1.42648C 1.07828 1.68082 0.920313 1.96838 0.806992 2.28948C 0.693671 2.61058 0.63873 2.93749 0.63873 3.27057Z"/>
<path id="path26_fill" d="M 5.7313 6.4501L 5.7313 1.15364L 3.37216 5.25094L 2.99786 5.25094L 0.63872 1.15364L 0.63872 6.4501L 5.03025e-06 6.4501L 5.03025e-06 6.8532e-06L 0.655907 6.8532e-06L 3.17987 4.41497L 5.72447 6.8532e-06L 6.37001 6.8532e-06L 6.37001 6.4501L 5.7313 6.4501Z"/>
<path id="path27_fill" d="M -1.67675e-05 6.4501L -1.67675e-05 6.8532e-06L 2.68194 6.8532e-06C 2.96009 6.8532e-06 3.21764 0.059231 3.45115 0.177333C 3.68466 0.295436 3.88727 0.449813 4.05553 0.640488C 4.22723 0.831164 4.36117 1.04787 4.45732 1.28989C 4.55348 1.53226 4.60496 1.77769 4.60496 2.02588C 4.60496 2.29221 4.55688 2.54827 4.46759 2.79338C 4.37488 3.03882 4.24782 3.25518 4.08299 3.44311C 3.92159 3.63071 3.72244 3.78237 3.49579 3.89739C 3.26915 4.01241 3.01505 4.06991 2.73346 4.06991L 0.63874 4.06991L 0.63874 6.4501L -1.67675e-05 6.4501ZM 0.63874 3.50678L 2.7094 3.50678C 2.89483 3.50678 3.06653 3.46571 3.2245 3.3839C 3.37902 3.30243 3.50952 3.19322 3.61941 3.05697C 3.7293 2.92073 3.81515 2.76326 3.87352 2.58456C 3.93533 2.40587 3.96625 2.21964 3.96625 2.02588C 3.96625 1.82596 3.93189 1.63666 3.85977 1.45796C 3.79109 1.27927 3.69839 1.12352 3.57821 0.990357C 3.46145 0.85685 3.32067 0.752435 3.15927 0.676781C 2.99787 0.601127 2.82962 0.563118 2.65448 0.563118L 0.63874 0.563118L 0.63874 3.50678Z"/>
<path id="path28_fill" d="M 0 6.4501L 0 6.8532e-06L 0.638715 6.8532e-06L 0.638715 5.88697L 4.37489 5.88697L 4.37489 6.4501L 0 6.4501Z"/>
<path id="path29_fill" d="M 4.34743 5.88697L 4.34743 6.4501L 3.3535e-06 6.4501L 3.3535e-06 6.8532e-06L 4.26502 6.8532e-06L 4.26502 0.563118L 0.638719 0.563118L 0.638719 2.88888L 3.8014 2.88888L 3.8014 3.42498L 0.638719 3.42498L 0.638719 5.88697L 4.34743 5.88697Z"/>
<path id="path30_fill" d="M 0.721121 6.8532e-06L 2.84334 2.81632L 4.96895 6.8532e-06L 5.6695 6.8532e-06L 3.17986 3.27057L 5.5974 6.4501L 4.89341 6.4501L 2.84334 3.72485L 0.793263 6.4501L 0.0720935 6.4501L 2.48963 3.27057L -6.70699e-06 6.8532e-06L 0.721121 6.8532e-06Z"/>
<path id="path31_fill" d="M 3.3535e-06 6.4501L 3.3535e-06 6.8532e-06L 2.67852 6.8532e-06C 2.96011 6.8532e-06 3.21423 0.059231 3.45117 0.177333C 3.68468 0.295436 3.88725 0.449813 4.05551 0.640488C 4.22721 0.831164 4.36115 1.04787 4.4573 1.28989C 4.55345 1.53226 4.60155 1.77769 4.60155 2.02588C 4.60155 2.29221 4.5569 2.54827 4.46762 2.79338C 4.3749 3.03882 4.24784 3.25518 4.08301 3.44311C 3.91818 3.63071 3.72241 3.78237 3.49577 3.89739C 3.26913 4.01241 3.01502 4.06991 2.73344 4.06991L 0.638719 4.06991L 0.638719 6.4501L 3.3535e-06 6.4501ZM 0.638719 3.50678L 2.70598 3.50678C 2.89485 3.50678 3.06655 3.46571 3.22108 3.3839C 3.37561 3.30243 3.50954 3.19322 3.61943 3.05697C 3.72932 2.92073 3.81173 2.76326 3.87354 2.58456C 3.93535 2.40587 3.96627 2.21964 3.96627 2.02588C 3.96627 1.82596 3.92847 1.63666 3.85979 1.45796C 3.79111 1.27927 3.69498 1.12352 3.57823 0.990357C 3.45804 0.85685 3.32065 0.752435 3.15925 0.676781C 2.99785 0.601127 2.82959 0.563118 2.65103 0.563118L 0.638719 0.563118L 0.638719 3.50678Z"/>
<path id="path32_fill" d="M 2.0121e-05 6.4501L 2.0121e-05 6.8532e-06L 2.73346 6.8532e-06C 3.01161 6.8532e-06 3.26915 0.059231 3.50266 0.177333C 3.73617 0.295436 3.93879 0.449813 4.11048 0.640488C 4.27875 0.831164 4.41268 1.04787 4.5054 1.28989C 4.59812 1.53226 4.64616 1.77769 4.64616 2.02588C 4.64616 2.26208 4.61185 2.48767 4.54317 2.70265C 4.47106 2.91763 4.37487 3.1114 4.25125 3.28428C 4.12762 3.45681 3.97655 3.60196 3.79798 3.72006C 3.62285 3.83816 3.42712 3.9186 3.20735 3.96105L 4.79384 6.4501L 4.07272 6.4501L 2.55144 4.06991L 0.635298 4.06991L 0.635298 6.4501L 2.0121e-05 6.4501ZM 0.635298 3.50678L 2.7506 3.50678C 2.93947 3.50678 3.11117 3.46571 3.2657 3.3839C 3.42023 3.30243 3.55416 3.19185 3.66405 3.05252C 3.7705 2.9132 3.85635 2.75572 3.91816 2.58011C 3.97997 2.4045 4.00745 2.21964 4.00745 2.02588C 4.00745 1.83212 3.97313 1.64589 3.90445 1.4672C 3.83577 1.2885 3.7396 1.13242 3.62284 0.999258C 3.50265 0.866093 3.36531 0.759966 3.20391 0.681232C 3.04251 0.602497 2.87425 0.563118 2.69569 0.563118L 0.635298 0.563118L 0.635298 3.50678Z"/>
<path id="path33_fill" d="M 3.03565 6.54116C 2.58579 6.54116 2.17372 6.44873 1.79942 6.26387C 1.42512 6.07936 1.10574 5.83392 0.83789 5.52822C 0.570039 5.22218 0.363984 4.87267 0.219756 4.47899C 0.0720951 4.08532 1.84442e-05 3.68239 1.84442e-05 3.27057C 1.84442e-05 2.84061 0.0755425 2.42879 0.233506 2.03512C 0.388035 1.64144 0.60094 1.29332 0.875658 0.990358C 1.14694 0.6874 1.46976 0.446729 1.84063 0.268035C 2.2115 0.0893413 2.61327 8.35756e-06 3.04252 8.35756e-06C 3.49237 8.35756e-06 3.90444 0.0955167 4.27874 0.286192C 4.65305 0.47721 4.97242 0.726766 5.2334 1.03589C 5.49782 1.34466 5.70383 1.69452 5.85149 2.08511C 5.99572 2.47571 6.06784 2.87383 6.06784 3.27983C 6.06784 3.70979 5.99231 4.12161 5.83779 4.51528C 5.68326 4.90896 5.47031 5.25572 5.19903 5.55526C 4.92774 5.85513 4.60841 6.09442 4.23754 6.27311C 3.86667 6.4518 3.46489 6.54116 3.03565 6.54116ZM 0.638734 3.27057C 0.638734 3.6218 0.693677 3.95935 0.810433 4.28353C 0.927188 4.60771 1.092 4.89526 1.30147 5.14653C 1.51438 5.3978 1.76852 5.5977 2.06041 5.74627C 2.3523 5.8945 2.67508 5.96879 3.03565 5.96879C 3.39965 5.96879 3.72931 5.89005 4.02807 5.73258C 4.32683 5.57511 4.57749 5.36904 4.78353 5.11469C 4.98957 4.86034 5.15097 4.57279 5.2643 4.25169C 5.37418 3.93059 5.43256 3.60366 5.43256 3.27057C 5.43256 2.91935 5.37074 2.58182 5.25398 2.25764C 5.13379 1.9338 4.96898 1.64761 4.75607 1.39908C 4.54317 1.1509 4.29246 0.952358 4.00057 0.804131C 3.70868 0.655904 3.38591 0.581611 3.03565 0.581611C 2.66821 0.581611 2.33854 0.658635 2.03978 0.813366C 1.74446 0.967755 1.49036 1.17213 1.28432 1.42648C 1.07828 1.68082 0.920317 1.96838 0.806996 2.28948C 0.693674 2.61058 0.638734 2.93749 0.638734 3.27057Z"/>
<path id="path34_fill" d="M 4.86593 4.78776C 4.86593 5.02978 4.81788 5.2523 4.71829 5.4553C 4.62214 5.6583 4.49165 5.83391 4.32682 5.98214C 4.16198 6.13071 3.9731 6.24574 3.75333 6.32756C 3.53355 6.40937 3.30007 6.4501 3.05282 6.4501L 8.38374e-06 6.4501L 8.38374e-06 6.8532e-06L 3.11461 6.8532e-06C 3.34125 6.8532e-06 3.54387 0.0486129 3.72587 0.145491C 3.90787 0.242369 4.06239 0.368007 4.18945 0.522396C 4.31994 0.676785 4.41609 0.852399 4.4882 1.04924C 4.55688 1.24607 4.59124 1.44461 4.59124 1.64419C 4.59124 1.97145 4.50884 2.26962 4.34744 2.53903C 4.18261 2.80879 3.95253 3.01008 3.66064 3.14324C 4.03151 3.25245 4.32681 3.45509 4.53972 3.75188C 4.75606 4.04868 4.86593 4.39409 4.86593 4.78776ZM 4.22722 4.67857C 4.22722 4.5211 4.19975 4.36807 4.1448 4.21984C 4.08986 4.07127 4.01434 3.94119 3.91132 3.82925C 3.81173 3.71697 3.69497 3.62625 3.55761 3.55675C 3.42025 3.48692 3.27257 3.45201 3.11461 3.45201L 0.635286 3.45201L 0.635286 5.89587L 3.05282 5.89587C 3.21422 5.89587 3.36874 5.86267 3.51296 5.79591C 3.65376 5.7295 3.77737 5.64017 3.88382 5.52788C 3.99027 5.41594 4.07612 5.28584 4.13449 5.13727C 4.1963 4.98905 4.22722 4.83604 4.22722 4.67857ZM 0.635286 0.554218L 0.635286 2.93441L 2.8605 2.93441C 3.01846 2.93441 3.16614 2.90121 3.3035 2.83445C 3.43742 2.7677 3.55762 2.68008 3.65377 2.57088C 3.74992 2.46202 3.82544 2.33638 3.88038 2.19397C 3.93533 2.05156 3.96279 1.90162 3.96279 1.74415C 3.96279 1.58086 3.93876 1.42648 3.88382 1.28099C 3.83231 1.1355 3.76019 1.00986 3.66748 0.904086C 3.57132 0.797965 3.46145 0.713075 3.33439 0.649744C 3.20733 0.586072 3.06655 0.554218 2.91545 0.554218L 0.635286 0.554218Z"/>
<path id="path35_fill" d="M -5.03024e-06 6.4501L -5.03024e-06 6.8532e-06L 0.63871 6.8532e-06L 0.63871 5.88697L 4.37488 5.88697L 4.37488 6.4501L -5.03024e-06 6.4501Z"/>
<path id="path36_fill" d="M 4.34743 5.88697L 4.34743 6.4501L -1.67675e-06 6.4501L -1.67675e-06 6.8532e-06L 4.26502 6.8532e-06L 4.26502 0.563118L 0.638714 0.563118L 0.638714 2.88888L 3.8014 2.88888L 3.8014 3.42498L 0.638714 3.42498L 0.638714 5.88697L 4.34743 5.88697Z"/>
<path id="path37_fill" d="M 5.73132 6.4501L 5.73132 1.15364L 3.37217 5.25094L 2.99788 5.25094L 0.638739 1.15364L 0.638739 6.4501L -1.84442e-05 6.4501L -1.84442e-05 6.8532e-06L 0.655884 6.8532e-06L 3.17985 4.41497L 5.72444 6.8532e-06L 6.37003 6.8532e-06L 6.37003 6.4501L 5.73132 6.4501Z"/>
<path id="path38_fill" d="M 4.30279 1.25393C 4.12079 1.04785 3.87697 0.881498 3.57478 0.754153C 3.26916 0.626808 2.92232 0.563475 2.53428 0.563475C 1.96424 0.563475 1.54529 0.67095 1.28774 0.88593C 1.02332 1.10091 0.892825 1.39327 0.892825 1.76264C 0.892825 1.95639 0.930619 2.11524 0.999299 2.2395C 1.06798 2.36376 1.17785 2.47124 1.32207 2.56196C 1.4663 2.65267 1.65517 2.73141 1.88181 2.79816C 2.11189 2.86491 2.37973 2.93134 2.68879 2.99809C 3.03562 3.07067 3.34815 3.15248 3.62287 3.2432C 3.90102 3.33426 4.13451 3.4479 4.33024 3.58415C 4.52255 3.72039 4.67366 3.88539 4.77668 4.07914C 4.8797 4.2729 4.93119 4.51528 4.93119 4.80592C 4.93119 5.10272 4.87281 5.36014 4.75949 5.5782C 4.64274 5.79626 4.48133 5.97769 4.27529 6.12317C 4.06925 6.26866 3.82204 6.37616 3.53702 6.44565C 3.252 6.51514 2.93947 6.55006 2.5995 6.55006C 1.59678 6.55006 0.731436 6.23821 -1.67675e-06 5.61449L 0.319377 5.09655C 0.436132 5.21774 0.573478 5.33275 0.734875 5.44195C 0.896272 5.55081 1.07482 5.64632 1.27399 5.72813C 1.46973 5.80961 1.67923 5.87328 1.90587 5.91881C 2.12908 5.96434 2.36601 5.98693 2.61669 5.98693C 3.13179 5.98693 3.53357 5.8945 3.82546 5.70964C 4.11391 5.52513 4.25814 5.24511 4.25814 4.86958C 4.25814 4.66966 4.21694 4.50157 4.13452 4.36533C 4.05211 4.22908 3.92846 4.11099 3.76363 4.01103C 3.60223 3.91107 3.39623 3.82481 3.15585 3.75224C 2.91204 3.67932 2.62698 3.60674 2.30762 3.53417C 1.96766 3.45543 1.66891 3.37363 1.4148 3.28873C 1.15725 3.20383 0.944336 3.09805 0.765769 2.9707C 0.590636 2.8437 0.456703 2.69067 0.370853 2.51198C 0.28157 2.33328 0.236965 2.11387 0.236965 1.85336C 0.236965 1.55656 0.295339 1.2916 0.405227 1.05847C 0.518548 0.825349 0.679911 0.631593 0.88595 0.477204C 1.09199 0.322473 1.3358 0.204359 1.61395 0.122885C 1.89211 0.0410695 2.20463 8.35756e-06 2.54459 8.35756e-06C 2.97384 8.35756e-06 3.35844 0.065387 3.69497 0.195471C 4.03493 0.325555 4.34057 0.508692 4.61185 0.744897L 4.30279 1.25393Z"/>
<path id="path39_fill" d="M 0.537742 -4.51308e-06L 8.38374e-06 -4.51308e-06L 8.38374e-06 0.890389L 0.537742 0.890389L 0.537742 -4.51308e-06Z"/>
<path id="path40_fill" d="M 4.30279 1.25393C 4.12079 1.04785 3.87698 0.881498 3.57479 0.754153C 3.26916 0.626808 2.92232 0.563475 2.53428 0.563475C 1.96424 0.563475 1.54529 0.67095 1.28431 0.88593C 1.02332 1.10091 0.892828 1.39327 0.892828 1.76264C 0.892828 1.95639 0.930622 2.11524 0.999302 2.2395C 1.06798 2.36376 1.17785 2.47124 1.32208 2.56196C 1.4663 2.65267 1.65517 2.73141 1.88182 2.79816C 2.11189 2.86491 2.37974 2.93134 2.68879 2.99809C 3.03563 3.07067 3.34815 3.15248 3.62287 3.2432C 3.90102 3.33426 4.13451 3.4479 4.33025 3.58415C 4.52255 3.72039 4.67366 3.88539 4.77668 4.07914C 4.8797 4.2729 4.93119 4.51528 4.93119 4.80592C 4.93119 5.10272 4.87282 5.36014 4.75949 5.5782C 4.64274 5.79626 4.48133 5.97769 4.27529 6.12317C 4.06925 6.26866 3.82204 6.37616 3.53702 6.44565C 3.252 6.51514 2.93947 6.55006 2.59951 6.55006C 1.59678 6.55006 0.73144 6.23821 1.67675e-06 5.61449L 0.31938 5.09655C 0.436136 5.21774 0.573482 5.33275 0.734879 5.44195C 0.896276 5.55081 1.07482 5.64632 1.274 5.72813C 1.46973 5.80961 1.67924 5.87328 1.90588 5.91881C 2.12909 5.96434 2.36601 5.98693 2.61669 5.98693C 3.13179 5.98693 3.53357 5.8945 3.82546 5.70964C 4.11392 5.52513 4.25815 5.24511 4.25815 4.86958C 4.25815 4.66966 4.21694 4.50157 4.13453 4.36533C 4.05211 4.22908 3.92846 4.11099 3.76363 4.01103C 3.60223 3.91107 3.39619 3.82481 3.15581 3.75224C 2.912 3.67932 2.62699 3.60674 2.30763 3.53417C 1.96766 3.45543 1.66891 3.37363 1.4148 3.28873C 1.15725 3.20383 0.940906 3.09805 0.765773 2.9707C 0.59064 2.8437 0.456706 2.69067 0.370857 2.51198C 0.281573 2.33328 0.236926 2.11387 0.236926 1.85336C 0.236926 1.55656 0.295343 1.2916 0.40523 1.05847C 0.518551 0.825349 0.679915 0.631593 0.885954 0.477204C 1.09199 0.322473 1.3358 0.204359 1.61396 0.122885C 1.89211 0.0410695 2.20463 8.35756e-06 2.54459 8.35756e-06C 2.97384 8.35756e-06 3.35844 0.065387 3.69497 0.195471C 4.03493 0.325555 4.34057 0.508692 4.61186 0.744897L 4.30279 1.25393Z"/>
<path id="path41_fill" d="M 0.638016 6.8532e-06L 1.3414e-05 6.8532e-06L 1.3414e-05 6.4501L 0.638016 6.4501L 0.638016 6.8532e-06Z"/>
<path id="path42_fill" d="M 5.73474 6.4501L 5.73474 1.15364L 3.37216 5.25094L 2.99787 5.25094L 0.638727 1.15364L 0.638727 6.4501L 1.17372e-05 6.4501L 1.17372e-05 6.8532e-06L 0.659309 6.8532e-06L 3.18332 4.41497L 5.72443 6.8532e-06L 6.37002 6.8532e-06L 6.37002 6.4501L 5.73474 6.4501Z"/>
<path id="path43_fill" d="M -6.70699e-06 6.4501L -6.70699e-06 6.8532e-06L 2.67851 6.8532e-06C 2.95667 6.8532e-06 3.21421 0.059231 3.44772 0.177333C 3.68123 0.295436 3.88385 0.449813 4.05554 0.640488C 4.22381 0.831164 4.3577 1.04787 4.45386 1.28989C 4.55344 1.53226 4.60149 1.77769 4.60149 2.02588C 4.60149 2.29221 4.55689 2.54827 4.46417 2.79338C 4.37488 3.03882 4.24444 3.25518 4.08304 3.44311C 3.91821 3.63071 3.72244 3.78237 3.49237 3.89739C 3.26572 4.01241 3.01158 4.06991 2.73343 4.06991L 0.638709 4.06991L 0.638709 6.4501L -6.70699e-06 6.4501ZM 0.638709 3.50678L 2.70597 3.50678C 2.89484 3.50678 3.06654 3.46571 3.22107 3.3839C 3.3756 3.30243 3.5061 3.19322 3.61598 3.05697C 3.72587 2.92073 3.81172 2.76326 3.87353 2.58456C 3.93191 2.40587 3.96282 2.21964 3.96282 2.02588C 3.96282 1.82596 3.92846 1.63666 3.85978 1.45796C 3.78767 1.27927 3.69497 1.12352 3.57478 0.990357C 3.45802 0.85685 3.31724 0.752435 3.15584 0.676781C 2.99445 0.601127 2.82615 0.563118 2.65102 0.563118L 0.638709 0.563118L 0.638709 3.50678Z"/>
<path id="path44_fill" d="M 6.70699e-06 6.4501L 6.70699e-06 6.8532e-06L 0.63868 6.8532e-06L 0.63868 5.88697L 4.37489 5.88697L 4.37489 6.4501L 6.70699e-06 6.4501Z"/>
<path id="path45_fill" d="M 4.3474 5.88697L 4.3474 6.4501L 1.00605e-05 6.4501L 1.00605e-05 6.8532e-06L 4.26499 6.8532e-06L 4.26499 0.563118L 0.638683 0.563118L 0.638683 2.88888L 3.80145 2.88888L 3.80145 3.42498L 0.638683 3.42498L 0.638683 5.88697L 4.3474 5.88697Z"/>
<path id="path46_fill" d="M 4.3028 1.25393C 4.1208 1.04785 3.87694 0.881498 3.57132 0.754153C 3.26913 0.626808 2.92229 0.563475 2.53425 0.563475C 1.96077 0.563475 1.5453 0.67095 1.28432 0.88593C 1.02333 1.10091 0.892795 1.39327 0.892795 1.76264C 0.892795 1.95639 0.927155 2.11524 0.999268 2.2395C 1.06795 2.36376 1.17438 2.47124 1.32204 2.56196C 1.46627 2.65267 1.65518 2.73141 1.88182 2.79816C 2.10847 2.86491 2.37979 2.93134 2.68884 2.99809C 3.03568 3.07067 3.34472 3.15248 3.62288 3.2432C 3.8976 3.33426 4.13448 3.4479 4.33021 3.58415C 4.52252 3.72039 4.67363 3.88539 4.77665 4.07914C 4.87967 4.2729 4.93116 4.51528 4.93116 4.80592C 4.93116 5.10272 4.87278 5.36014 4.75602 5.5782C 4.6427 5.79626 4.48134 5.97769 4.2753 6.12317C 4.06583 6.26866 3.82205 6.37616 3.53703 6.44565C 3.24857 6.51514 2.93608 6.55006 2.59612 6.55006C 1.5934 6.55006 0.728014 6.23821 1.00605e-05 5.61449L 0.319347 5.09655C 0.436102 5.21774 0.573448 5.33275 0.734845 5.44195C 0.896242 5.55081 1.07483 5.64632 1.27057 5.72813C 1.46974 5.80961 1.67924 5.87328 1.90589 5.91881C 2.1291 5.96434 2.36598 5.98693 2.61666 5.98693C 3.13176 5.98693 3.53354 5.8945 3.82199 5.70964C 4.11045 5.52513 4.25468 5.24511 4.25468 4.86958C 4.25468 4.66966 4.21352 4.50157 4.13454 4.36533C 4.05212 4.22908 3.92847 4.11099 3.76364 4.01103C 3.59881 3.91107 3.39619 3.82481 3.15238 3.75224C 2.90857 3.67932 2.62699 3.60674 2.3042 3.53417C 1.96423 3.45543 1.66888 3.37363 1.41133 3.28873C 1.15721 3.20383 0.940914 3.09805 0.765781 2.9707C 0.590648 2.8437 0.456756 2.69067 0.370907 2.51198C 0.281623 2.33328 0.236935 2.11387 0.236935 1.85336C 0.236935 1.55656 0.291875 1.2916 0.405196 1.05847C 0.518518 0.825349 0.676528 0.631593 0.882567 0.477204C 1.09204 0.322473 1.33238 0.204359 1.61396 0.122885C 1.89212 0.0410695 2.20116 8.35756e-06 2.54112 8.35756e-06C 2.9738 8.35756e-06 3.35845 0.065387 3.69498 0.195471C 4.03151 0.325555 4.3371 0.508692 4.61182 0.744897L 4.3028 1.25393Z"/>
<path id="path47_fill" d="M 3.03565 6.54116C 2.5858 6.54116 2.17369 6.44873 1.79938 6.26387C 1.42851 6.07936 1.1057 5.83392 0.841288 5.52822C 0.573438 5.22218 0.367463 4.87267 0.219802 4.47899C 0.0755744 4.08532 -2.0121e-05 3.68239 -2.0121e-05 3.27057C -2.0121e-05 2.84061 0.0790218 2.42879 0.233551 2.03512C 0.38808 1.64144 0.604377 1.29332 0.875662 0.990358C 1.15038 0.6874 1.46976 0.446729 1.84063 0.268035C 2.2115 0.0893413 2.61328 8.35756e-06 3.04596 8.35756e-06C 3.49581 8.35756e-06 3.90784 0.0955167 4.27871 0.286192C 4.65301 0.47721 4.97238 0.726766 5.2368 1.03589C 5.50122 1.34466 5.70727 1.69452 5.8515 2.08511C 5.99916 2.47571 6.07132 2.87383 6.07132 3.27983C 6.07132 3.70979 5.99228 4.12161 5.83775 4.51528C 5.68322 4.90896 5.47036 5.25572 5.19907 5.55526C 4.93122 5.85513 4.60841 6.09442 4.23754 6.27311C 3.86667 6.4518 3.46833 6.54116 3.03565 6.54116ZM 0.638737 3.27057C 0.638737 3.6218 0.697115 3.95935 0.810436 4.28353C 0.927191 4.60771 1.092 4.89526 1.30491 5.14653C 1.51782 5.3978 1.76848 5.5977 2.06037 5.74627C 2.35226 5.8945 2.67851 5.96879 3.03565 5.96879C 3.39965 5.96879 3.73271 5.89005 4.02803 5.73258C 4.32679 5.57511 4.57746 5.36904 4.78693 5.11469C 4.99297 4.86034 5.15098 4.57279 5.2643 4.25169C 5.37762 3.93059 5.43256 3.60366 5.43256 3.27057C 5.43256 2.91935 5.37418 2.58182 5.25399 2.25764C 5.13723 1.9338 4.96899 1.64761 4.75951 1.39908C 4.54661 1.1509 4.29251 0.952358 4.00062 0.804131C 3.70873 0.655904 3.38935 0.581611 3.03565 0.581611C 2.67165 0.581611 2.34194 0.658635 2.04318 0.813366C 1.74443 0.967755 1.49376 1.17213 1.28429 1.42648C 1.07825 1.68082 0.92032 1.96838 0.806999 2.28948C 0.697111 2.61058 0.638737 2.93749 0.638737 3.27057Z"/>
<path id="path48_fill" d="M -3.01815e-05 6.4501L -3.01815e-05 6.8532e-06L 0.638727 6.8532e-06L 0.638727 5.88697L 4.37486 5.88697L 4.37486 6.4501L -3.01815e-05 6.4501Z"/>
<path id="path49_fill" d="M 2.71625 5.92326C 3.12145 5.92326 3.46149 5.84589 3.73277 5.6915C 4.00062 5.53712 4.21692 5.33411 4.37832 5.08284C 4.53972 4.83158 4.65303 4.54539 4.71485 4.22429C 4.78009 3.90353 4.81101 3.57936 4.81101 3.25243L 4.81101 6.8532e-06L 5.44976 6.8532e-06L 5.44976 3.25243C 5.44976 3.68822 5.40163 4.10175 5.30204 4.49234C 5.20589 4.88294 5.05141 5.22664 4.83507 5.52343C 4.61873 5.82023 4.33715 6.05642 3.99032 6.23203C 3.64349 6.40764 3.22105 6.49563 2.72312 6.49563C 2.21489 6.49563 1.78221 6.4032 1.43538 6.21834C 1.08511 6.03383 0.803538 5.7901 0.590631 5.48714C 0.377724 5.18418 0.226606 4.83911 0.137322 4.4516C 0.0446049 4.06374 -3.3535e-06 3.66425 -3.3535e-06 3.25243L -3.3535e-06 6.8532e-06L 0.628442 6.8532e-06L 0.628442 3.25243C 0.628442 3.59134 0.662795 3.92169 0.728041 4.24245C 0.79672 4.56355 0.910042 4.84802 1.07144 5.09655C 1.23284 5.34474 1.4457 5.54465 1.71355 5.69596C 1.9814 5.84761 2.31447 5.92326 2.71625 5.92326Z"/>
<path id="path50_fill" d="M 5.24711 0.563118L 2.94292 0.563118L 2.94292 6.4501L 2.30416 6.4501L 2.30416 0.563118L -2.6828e-05 0.563118L -2.6828e-05 6.8532e-06L 5.24711 6.8532e-06L 5.24711 0.563118Z"/>
<path id="path51_fill" d="M 0.638023 6.8532e-06L 2.0121e-05 6.8532e-06L 2.0121e-05 6.4501L 0.638023 6.4501L 0.638023 6.8532e-06Z"/>
<path id="path52_fill" d="M 3.03565 6.54116C 2.58579 6.54116 2.17368 6.44873 1.79938 6.26387C 1.42508 6.07936 1.10578 5.83392 0.837931 5.52822C 0.570081 5.22218 0.364025 4.87267 0.219798 4.47899C 0.0721371 4.08532 -2.34745e-05 3.68239 -2.34745e-05 3.27057C -2.34745e-05 2.84061 0.0790184 2.42879 0.233548 2.03512C 0.388077 1.64144 0.60094 1.29332 0.875658 0.990358C 1.14694 0.6874 1.46976 0.446729 1.84063 0.268035C 2.2115 0.0893413 2.61327 8.35756e-06 3.04252 8.35756e-06C 3.49237 8.35756e-06 3.9044 0.0955167 4.2787 0.286192C 4.65301 0.47721 4.97238 0.726766 5.2368 1.03589C 5.50121 1.34466 5.70383 1.69452 5.85149 2.08511C 5.99572 2.47571 6.07131 2.87383 6.07131 3.27983C 6.07131 3.70979 5.99227 4.12161 5.83774 4.51528C 5.68321 4.90896 5.47035 5.25572 5.19907 5.55526C 4.92779 5.85513 4.60841 6.09442 4.23754 6.27311C 3.86667 6.4518 3.46489 6.54116 3.03565 6.54116ZM 0.638734 3.27057C 0.638734 3.6218 0.697111 3.95935 0.810433 4.28353C 0.927188 4.60771 1.092 4.89526 1.30147 5.14653C 1.51781 5.3978 1.76848 5.5977 2.06036 5.74627C 2.35225 5.8945 2.67508 5.96879 3.03565 5.96879C 3.39965 5.96879 3.72927 5.89005 4.02803 5.73258C 4.32679 5.57511 4.57753 5.36904 4.78357 5.11469C 4.98961 4.86034 5.15097 4.57279 5.2643 4.25169C 5.37418 3.93059 5.43256 3.60366 5.43256 3.27057C 5.43256 2.91935 5.37417 2.58182 5.25398 2.25764C 5.13723 1.9338 4.96898 1.64761 4.75607 1.39908C 4.54317 1.1509 4.2925 0.952358 4.00061 0.804131C 3.70873 0.655904 3.38591 0.581611 3.03565 0.581611C 2.67164 0.581611 2.3385 0.658635 2.04318 0.813366C 1.74442 0.967755 1.49032 1.17213 1.28428 1.42648C 1.07824 1.68082 0.920317 1.96838 0.806995 2.28948C 0.693674 2.61058 0.638734 2.93749 0.638734 3.27057Z"/>
<path id="path53_fill" d="M 0.638724 1.18101L 0.638724 6.4501L -3.3535e-05 6.4501L -3.3535e-05 6.8532e-06L 0.491086 6.8532e-06L 4.77325 5.36903L 4.77325 0.00924196L 5.41192 0.00924196L 5.41192 6.4501L 4.85566 6.4501L 0.638724 1.18101Z"/>
<path id="path54_fill" d="M 4.30276 1.25393C 4.12076 1.04785 3.87698 0.881498 3.57136 0.754153C 3.26917 0.626808 2.92233 0.563475 2.53429 0.563475C 1.96425 0.563475 1.54526 0.67095 1.28428 0.88593C 1.02329 1.10091 0.892838 1.39327 0.892838 1.76264C 0.892838 1.95639 0.927198 2.11524 0.999312 2.2395C 1.06799 2.36376 1.17786 2.47124 1.32209 2.56196C 1.46631 2.65267 1.65514 2.73141 1.88178 2.79816C 2.10843 2.86491 2.37975 2.93134 2.6888 2.99809C 3.03564 3.07067 3.34812 3.15248 3.62284 3.2432C 3.89756 3.33426 4.13452 3.4479 4.33026 3.58415C 4.52256 3.72039 4.67367 3.88539 4.77669 4.07914C 4.87971 4.2729 4.9312 4.51528 4.9312 4.80592C 4.9312 5.10272 4.87282 5.36014 4.75607 5.5782C 4.64275 5.79626 4.48138 5.97769 4.27534 6.12317C 4.0693 6.26866 3.82201 6.37616 3.53699 6.44565C 3.25197 6.51514 2.93948 6.55006 2.59608 6.55006C 1.59679 6.55006 0.727974 6.23821 -3.01815e-05 5.61449L 0.31939 5.09655C 0.436146 5.21774 0.573492 5.33275 0.734889 5.44195C 0.896286 5.55081 1.07487 5.64632 1.27061 5.72813C 1.46978 5.80961 1.6792 5.87328 1.90585 5.91881C 2.12905 5.96434 2.36602 5.98693 2.6167 5.98693C 3.1318 5.98693 3.53358 5.8945 3.82203 5.70964C 4.11049 5.52513 4.25472 5.24511 4.25472 4.86958C 4.25472 4.66966 4.21348 4.50157 4.1345 4.36533C 4.05208 4.22908 3.92851 4.11099 3.76368 4.01103C 3.59885 3.91107 3.39624 3.82481 3.15242 3.75224C 2.91205 3.67932 2.62696 3.60674 2.3076 3.53417C 1.96763 3.45543 1.66892 3.37363 1.41481 3.28873C 1.15726 3.20383 0.940874 3.09805 0.765741 2.9707C 0.590608 2.8437 0.456716 2.69067 0.370867 2.51198C 0.281583 2.33328 0.236978 2.11387 0.236978 1.85336C 0.236978 1.55656 0.291919 1.2916 0.40524 1.05847C 0.518561 0.825349 0.676491 0.631593 0.885964 0.477204C 1.092 0.322473 1.33586 0.204359 1.61401 0.122885C 1.89216 0.0410695 2.20464 8.35756e-06 2.5446 8.35756e-06C 2.97385 8.35756e-06 3.35841 0.065387 3.69494 0.195471C 4.03147 0.325555 4.33715 0.508692 4.61187 0.744897L 4.30276 1.25393Z"/>
<path id="path55_fill" fill-rule="evenodd" d="M 120.934 25.0555L 94.5821 25.0555L 94.5821 24.3424L 120.217 24.3424L 120.217 0.713064L 0.714276 0.713064L 0.714276 24.3424L 26.8743 24.3424L 26.8743 25.0555L -1.84442e-05 25.0555L -1.84442e-05 -2.84157e-06L 120.934 -2.84157e-06L 120.934 25.0555Z"/>
</defs>
</svg>
